<svg width="610" height="527" viewBox="0 0 610 527" fill="none" xmlns="http://www.w3.org/2000/svg">
<path opacity="0.7" d="M221.238 250.888C220.024 249.991 218.18 249.592 216.795 249.928C212.1 251.067 201.409 254.901 195.812 266.857C189.246 280.884 199.486 290.525 201.624 292.332C198.995 296.051 196.892 298.483 196.019 299.451C192.922 297.773 189.643 295.963 186.216 294.027C180.666 290.921 174.783 287.46 168.618 283.76C167.092 282.824 165.545 281.877 163.98 280.917C163.197 280.436 162.41 279.954 161.617 279.468C160.838 278.976 160.053 278.479 159.264 277.98C157.687 276.983 156.093 275.974 154.481 274.957C152.937 273.95 151.378 272.933 149.806 271.909C151.327 270.424 154.284 267.46 157.886 263.485C161.2 263.636 178.832 263.821 185.891 251.161C191.873 240.433 185.886 233.041 182.759 230.171C181.845 229.332 180.269 228.86 178.959 229.035C174.525 229.626 164.182 232.004 156.823 241.526C148.141 252.76 155.577 261.6 157.085 263.195C153.567 267.075 150.674 269.977 149.141 271.476C146.078 269.491 143.068 267.422 139.988 265.347C138.344 264.254 136.77 263.114 135.15 261.987C133.542 260.854 131.909 259.723 130.302 258.572C125.068 254.772 119.822 250.891 114.746 246.924C115.537 246.345 116.86 245.367 118.573 244.051C120.451 242.61 122.805 240.756 125.427 238.601C128.197 238.901 144.871 240.204 153.352 229.286C160.453 220.146 155.937 213.287 153.437 210.579C152.706 209.787 151.306 209.283 150.063 209.365C145.852 209.64 135.886 211.165 127.676 219.163C118.199 228.396 123.407 236.46 124.738 238.201C119.815 242.249 115.865 245.199 114.149 246.455C113.245 245.745 112.333 245.037 111.443 244.321C102.972 237.589 94.9562 230.678 87.6453 223.825C88.84 223.155 92.3408 221.106 96.7111 217.752C97.6813 217.007 98.705 216.173 99.7457 215.3C102.398 215.463 115.958 215.805 121.859 206.285C126.88 198.183 122.506 192.458 120.186 190.224C119.508 189.571 118.303 189.188 117.282 189.304C113.823 189.693 105.721 191.362 99.6739 198.525C92.7194 206.763 97.7165 213.478 99.004 214.959C93.4532 219.613 88.682 222.448 87.1177 223.331C84.0571 220.449 81.11 217.578 78.33 214.738C76.3962 212.769 74.5407 210.816 72.7571 208.884C72.7767 208.858 72.8015 208.833 72.8015 208.799C72.8002 208.661 72.6147 208.52 72.3862 208.481C71.7647 207.805 71.1523 207.132 70.549 206.462C71.1092 205.455 73.5588 201.038 76.515 195.504C79.2871 195.374 91.8641 194.215 94.8517 183.921C97.4279 175.042 91.7793 169.589 88.9967 167.526C88.1832 166.923 86.9454 166.653 86.0144 166.877C82.8571 167.637 75.6637 170.198 71.8718 178.213C67.4479 187.562 74.1934 194.019 75.6807 195.289C73.0195 200.27 70.7749 204.335 69.9576 205.807C64.1326 199.287 59.189 193.07 55.1634 187.446C54.4256 186.428 53.7035 185.431 52.9984 184.456C52.2959 183.482 51.7214 182.517 51.1012 181.583C50.9353 181.328 50.7813 181.09 50.6167 180.837C51.8494 179.96 56.1962 176.08 51.4067 167.551C47.1787 160.022 40.8484 156.264 38.1194 154.92C37.3137 154.522 36.3201 154.468 35.7233 154.787C33.6825 155.877 29.709 159.14 33.0387 167.113C36.9547 176.487 47.8264 180.269 49.9456 180.928C50.0984 181.172 50.2433 181.404 50.3987 181.651C51.0019 182.589 51.5595 183.558 52.2437 184.539C52.9318 185.519 53.6356 186.521 54.3551 187.545C58.7124 193.825 64.1979 200.849 70.7671 208.22C67.363 207.67 58.95 206.321 49.2914 204.84C47.9621 203.546 41.09 197.616 24.7172 195.294C10.5994 193.292 3.33154 195.322 0.705672 196.379C-0.069945 196.692 -0.224018 197.368 0.332233 198.009C2.23602 200.202 8.04661 205.235 22.9348 208.177C40.1799 211.583 47.7663 206.522 49.2562 205.338C59.4632 206.904 68.2914 208.322 71.2933 208.808C73.1397 210.867 75.0656 212.95 77.0804 215.052C80.4519 218.582 84.061 222.16 87.8529 225.75C85.6736 226.105 79.6319 227.036 71.2842 227.933C69.4953 226.855 59.8837 221.619 43.2536 222.519C29.0692 223.287 23.4349 227.075 21.5742 228.805C21.0258 229.316 21.2504 230.099 22.1161 230.692C25.0749 232.72 33.2045 237.073 48.615 237.184C66.4738 237.314 70.7488 230.086 71.4827 228.461C80.0667 227.544 86.2494 226.584 88.3647 226.239C95.011 232.507 102.232 238.811 109.817 244.972C111.467 246.328 113.147 247.672 114.84 249.007C112.87 249.453 106.891 250.779 98.5835 252.389C96.2306 251.271 84.4462 246.28 66.9347 249.116C51.8846 251.553 46.8771 256.595 45.3585 258.819C44.9106 259.475 45.3715 260.366 46.4671 260.966C50.2185 263.018 60.1814 267.224 76.7984 265.683C96.4095 263.864 98.7285 254.646 98.9922 252.896C107.534 251.24 113.622 249.884 115.438 249.472C119.737 252.848 124.137 256.163 128.532 259.423C130.128 260.592 131.752 261.738 133.349 262.889C134.959 264.032 136.523 265.191 138.158 266.301C141.402 268.534 144.568 270.762 147.803 272.886C148.205 273.154 148.596 273.415 148.996 273.681C147.641 274.29 143.797 275.96 137.67 278.186C134.85 277.14 120.281 272.372 101.592 277.796C85.6187 282.431 81.533 289.073 80.4963 291.926C80.1907 292.768 80.9598 293.79 82.3491 294.388C87.1021 296.438 99.367 300.383 117.335 296.649C138.815 292.185 138.429 280.582 138.212 278.659C144.44 276.395 148.32 274.705 149.642 274.11C150.623 274.763 151.609 275.419 152.579 276.064C154.182 277.1 155.77 278.125 157.342 279.139C158.128 279.646 158.909 280.151 159.686 280.653C160.475 281.146 161.26 281.639 162.039 282.126C163.6 283.102 165.14 284.067 166.662 285.02C172.809 288.786 178.677 292.312 184.22 295.48C187.952 297.632 191.506 299.632 194.848 301.474C193.556 302.115 189.593 304.029 183.46 306.549C181.123 305.698 164.486 300.164 143.691 306.863C126.493 312.402 122.423 319.899 121.46 323.101C121.176 324.047 122.081 325.167 123.636 325.802C128.961 327.974 142.617 332.083 162.052 327.502C184.864 322.125 184.196 309.57 183.831 307.093C190.258 304.46 194.358 302.47 195.562 301.869C201.807 305.302 207.26 308.164 211.579 310.375C214.967 312.109 217.663 313.443 219.52 314.346C221.366 315.248 222.4 315.727 222.4 315.727L224.236 313.776C224.236 313.776 223.274 313.339 221.439 312.462C219.607 311.592 216.929 310.294 213.555 308.603C209.062 306.352 203.324 303.402 196.73 299.841C197.59 298.891 199.726 296.427 202.405 292.639C205.444 292.538 225.488 291.272 230.048 275.312C233.832 262.072 225.392 253.958 221.238 250.888Z" fill="#DEDEDE"/>
<g opacity="0.7">
<path d="M163.44 308.536C163.44 308.536 153.548 335.623 116.914 338.834C88.8468 341.294 76.2021 330.189 71.8238 324.859C70.5445 323.302 70.5272 321.08 71.786 319.506C76.0508 314.171 88.2402 302.207 114.511 297.427C148.798 291.187 163.44 308.536 163.44 308.536Z" fill="url(#paint0_linear_904_38386)"/>
</g>
<g opacity="0.7">
<path d="M199.174 289.222C199.174 289.222 227.335 295.74 250.028 266.886C267.413 244.778 264.981 228.154 262.893 221.586C262.284 219.666 260.426 218.439 258.416 218.633C251.605 219.284 234.897 222.94 216.543 242.279C192.585 267.52 199.174 289.222 199.174 289.222Z" fill="url(#paint1_linear_904_38386)"/>
</g>
<g opacity="0.7">
<path d="M173.03 225.306C173.03 225.306 196.614 234.238 219.631 211.947C237.267 194.868 237.122 180.208 236.09 174.285C235.789 172.554 234.327 171.275 232.566 171.206C226.601 170.972 211.724 172.175 193.576 186.748C169.891 205.77 173.03 225.306 173.03 225.306Z" fill="url(#paint2_linear_904_38386)"/>
</g>
<g opacity="0.7">
<path d="M157.769 172.442C157.769 172.442 178.385 182.562 201.179 164.317C218.643 150.34 219.774 137.034 219.349 131.574C219.224 129.978 218.01 128.694 216.419 128.481C211.029 127.758 197.434 127.576 179.723 139.237C156.603 154.457 157.769 172.442 157.769 172.442Z" fill="url(#paint3_linear_904_38386)"/>
</g>
<g opacity="0.7">
<path d="M148.951 124.283C148.951 124.283 166.895 131.662 185.082 115.013C199.017 102.258 199.224 90.9803 198.559 86.4012C198.365 85.0628 197.269 84.048 195.915 83.9569C191.332 83.649 179.865 84.2538 165.589 95.0694C146.959 109.19 148.951 124.283 148.951 124.283Z" fill="url(#paint4_linear_904_38386)"/>
</g>
<g opacity="0.7">
<path d="M139.651 83.0206C139.651 83.0206 158.547 87.4411 173.831 68.1066C185.54 53.2931 183.934 42.1256 182.543 37.7145C182.137 36.4248 180.892 35.5986 179.542 35.7242C174.968 36.1499 163.745 38.577 151.39 51.5321C135.263 68.4396 139.651 83.0206 139.651 83.0206Z" fill="url(#paint5_linear_904_38386)"/>
</g>
<g opacity="0.7">
<path d="M135.304 245.961C135.304 245.961 125.549 270.172 92.3144 271.994C66.8517 273.391 55.7431 262.969 51.9399 258.019C50.8276 256.573 50.8781 254.562 52.0644 253.175C56.0802 248.475 67.4646 238.011 91.3707 234.464C122.574 229.834 135.304 245.961 135.304 245.961Z" fill="url(#paint6_linear_904_38386)"/>
</g>
<g opacity="0.7">
<path d="M112.573 189.61C112.573 189.61 101.233 208.835 72.9075 206.15C51.207 204.094 43.1485 193.874 40.5679 189.207C39.8132 187.843 40.1125 186.15 41.2926 185.129C45.288 181.666 56.2485 174.269 76.9092 174.31C103.875 174.362 112.573 189.61 112.573 189.61Z" fill="url(#paint7_linear_904_38386)"/>
</g>
<g opacity="0.7">
<path d="M102.864 138.9C102.864 138.9 90.4757 154.177 66.1474 148.164C47.5096 143.556 41.8237 133.608 40.1837 129.206C39.7047 127.92 40.1868 126.484 41.3463 125.747C45.2787 123.249 55.7934 118.227 73.7884 120.942C97.2755 124.486 102.864 138.9 102.864 138.9Z" fill="url(#paint8_linear_904_38386)"/>
</g>
<g opacity="0.7">
<path d="M98.2649 92.226C98.2649 92.226 82.8552 102.294 62.924 90.0048C47.6546 80.5905 45.4457 70.1126 45.2472 65.7267C45.1889 64.4448 46.0302 63.3044 47.2749 62.9792C51.4924 61.878 62.2922 60.4029 77.5317 67.9511C97.4236 77.8005 98.2649 92.226 98.2649 92.226Z" fill="url(#paint9_linear_904_38386)"/>
</g>
<g opacity="0.7">
<path d="M122.434 50.3052C122.434 50.3052 110.107 40.4448 114.87 20.972C118.519 6.05325 126.503 1.47566 130.039 0.14983C131.072 -0.236609 132.229 0.143545 132.824 1.07037C134.846 4.20744 138.918 12.6007 136.79 26.9995C134.012 45.7921 122.434 50.3052 122.434 50.3052Z" fill="url(#paint10_linear_904_38386)"/>
</g>
<path opacity="0.7" d="M94.484 320.813C94.4619 320.536 94.6652 320.293 94.9456 320.272C139.818 316.621 176.211 304.604 181.945 302.633C179.66 298.449 177.265 293.932 174.806 289.093C171.123 281.958 167.389 274.101 163.548 265.745C162.617 263.643 161.675 261.511 160.72 259.355C160.242 258.275 159.763 257.19 159.28 256.1C158.818 254.999 158.355 253.891 157.89 252.777C156.959 250.551 156.017 248.3 155.065 246.029C154.509 244.621 153.944 243.19 153.381 241.765C148.007 243.399 117.372 252.224 72.7551 255.486C72.4778 255.506 72.2352 255.297 72.2147 255.022C72.1942 254.744 72.4053 254.502 72.6795 254.483C116.983 251.244 147.459 242.51 153.009 240.826C152.779 240.245 152.554 239.676 152.324 239.092C150.441 234.443 148.741 229.635 146.952 224.797C146.035 222.385 145.25 219.908 144.396 217.443C143.565 214.971 142.696 212.497 141.884 209.994C139.684 203.029 137.535 195.958 135.566 188.817C129.663 189.273 92.4248 191.945 56.7137 189.741C56.4364 189.723 56.2237 189.485 56.2426 189.208C56.2584 188.93 56.501 188.721 56.7767 188.738C92.0294 190.914 128.788 188.33 135.29 187.832C134.52 185.008 133.775 182.174 133.075 179.327C129.798 166.364 127.104 153.255 125.072 140.374C118.932 140.372 88.0671 139.983 57.503 132.83C57.232 132.768 57.065 132.497 57.128 132.227C57.1911 131.957 57.462 131.789 57.733 131.853C87.9757 138.929 118.51 139.361 124.924 139.368C123.78 131.993 122.844 124.693 122.152 117.544C121.732 113.287 121.401 109.086 121.142 104.953C114.163 101.205 77.4453 81.5738 59.9733 73.9943C59.7181 73.8843 59.6015 73.589 59.7134 73.3345C59.8221 73.0785 60.1199 72.9606 60.3767 73.0753C77.4673 80.4899 112.898 99.3909 121.07 103.775C120.196 88.9868 120.309 75.1096 121.072 62.8645C121.187 60.8663 121.298 58.9074 121.407 56.9957C121.522 55.0839 121.779 53.2255 121.951 51.4096C122.332 47.7808 122.694 44.3374 123.035 41.103C123.531 37.8874 123.996 34.8791 124.426 32.0971C124.884 29.3197 125.206 26.7529 125.672 24.4641C127.591 15.3247 128.686 10.1014 128.686 10.1014L129.023 10.1784C129.023 10.1784 128 15.4079 126.211 24.5599C125.776 26.8487 125.491 29.4171 125.072 32.1945C124.681 34.9749 124.259 37.9832 123.807 41.1957C123.512 44.427 123.197 47.8657 122.866 51.4897C122.72 53.3025 122.488 55.1577 122.4 57.0648C122.318 58.9734 122.233 60.926 122.146 62.9211C121.612 73.9252 121.62 86.2315 122.411 99.317C128.038 93.8535 156.696 65.9513 172.337 49.08C172.528 48.8789 172.845 48.8647 173.049 49.0517C173.254 49.2402 173.267 49.5575 173.078 49.7617C156.713 67.4138 126.132 97.1115 122.497 100.635C122.584 101.981 122.679 103.337 122.783 104.699C123.022 104.834 123.112 105.132 122.979 105.374C122.946 105.434 122.893 105.47 122.844 105.509C123.148 109.405 123.52 113.356 123.97 117.357C124.61 123.129 125.421 129.002 126.362 134.926C131.775 132.769 159.499 120.976 186.264 95.9663C186.471 95.77 186.786 95.7857 186.977 95.9883C187.167 96.1909 187.156 96.5099 186.954 96.6984C171.217 111.403 155.144 121.562 143.42 127.899C134.863 132.524 128.626 135.111 126.527 135.941C128.802 150.038 131.879 164.438 135.681 178.655C136.073 180.164 136.499 181.665 136.913 183.166C144.522 179.227 175.266 162.922 203.361 142.565C203.58 142.402 203.9 142.452 204.066 142.677C204.229 142.901 204.179 143.214 203.954 143.379C181.486 159.658 157.329 173.35 144.614 180.223C141.26 182.035 138.706 183.371 137.184 184.158C139.527 192.56 142.159 200.859 144.856 209.014C145.699 211.49 146.596 213.937 147.456 216.383C148.338 218.821 149.15 221.27 150.095 223.653C151.837 228.171 153.501 232.656 155.311 237.009C164.072 231.226 193.872 210.985 220.688 186.068C220.892 185.875 221.211 185.89 221.4 186.093C221.59 186.296 221.579 186.615 221.375 186.803C194.336 211.926 164.271 232.305 155.7 237.956C156.622 240.199 157.539 242.427 158.445 244.632C159.42 246.877 160.386 249.098 161.342 251.298C161.819 252.397 162.295 253.491 162.768 254.578C163.263 255.655 163.754 256.727 164.243 257.792C165.221 259.92 166.185 262.024 167.138 264.099C171.066 272.343 174.879 280.09 178.631 287.12C180.93 291.49 183.172 295.601 185.318 299.426C190.97 295.336 219.85 273.599 249.148 236.286C249.319 236.071 249.636 236.029 249.855 236.2C250.074 236.371 250.112 236.687 249.942 236.905C220.436 274.485 191.314 296.335 185.815 300.308C190.397 308.434 194.528 315.244 197.819 320.473C200.291 324.399 202.296 327.44 203.684 329.489C205.069 331.55 205.819 332.588 205.819 332.588L201.701 335.482C201.701 335.482 200.905 334.346 199.531 332.238C198.143 330.126 196.154 327.016 193.707 323.01C190.587 317.9 186.718 311.328 182.438 303.527C177.22 305.33 140.458 317.577 95.0307 321.273C94.7487 321.295 94.506 321.089 94.484 320.813Z" fill="url(#paint11_linear_904_38386)"/>
<path d="M375.218 526.58C504.776 526.58 609.803 466.118 609.803 391.535C609.803 316.952 504.776 256.49 375.218 256.49C245.66 256.49 140.633 316.952 140.633 391.535C140.633 466.118 245.66 526.58 375.218 526.58Z" fill="#222222"/>
<path opacity="0.7" d="M607.174 353.692C609.135 343.59 603.78 336.33 593.729 332.478C593.734 332.473 593.739 332.47 593.744 332.465C593.517 332.377 593.282 332.294 593.05 332.211L593.047 332.215C589.058 330.777 584.383 329.848 579.147 329.479C564.829 328.468 554.041 332.894 550.699 340.294C549.604 342.717 547.968 345.006 544.868 346.894C543.922 347.47 542.902 347.917 541.829 348.263C541.742 348.292 541.656 348.32 541.57 348.346C538.226 349.361 534.371 349.357 530.438 348.755C519.118 347.023 508.723 348.181 502.268 352.169C498.76 354.337 495.267 356.667 491.802 359.166C434.066 400.82 377.889 415.397 358.51 422.652C355.799 423.667 355.404 425.613 356.548 427.524C356.545 427.524 356.54 427.523 356.536 427.523C356.623 427.667 356.716 427.809 356.82 427.952C356.824 427.952 356.829 427.952 356.829 427.952C358.378 430.095 361.825 432.102 366.132 432.586C375.919 433.684 393.14 435.194 414.217 435.29L414.224 435.293C414.313 435.293 414.401 435.295 414.49 435.295C414.666 435.295 414.842 435.297 415.018 435.297C415.053 435.297 415.089 435.297 415.124 435.297L415.122 435.295C443.092 435.368 477.71 432.922 510.809 423.733C511.248 423.612 511.671 423.478 512.09 423.342L512.128 423.357C512.334 423.299 512.54 423.241 512.746 423.182L512.66 423.147C519.727 420.691 523.767 416.199 524.308 410.724C524.534 408.432 526.019 406.114 529.325 403.877C536.896 398.749 548.692 397.555 560.58 396.803C567.6 396.359 573.488 394.533 577.302 391.492C577.322 391.475 577.343 391.459 577.363 391.442C578.9 390.217 580.358 389.008 581.767 387.813C581.878 387.719 581.994 387.623 582.104 387.53L582.095 387.529C597.548 374.335 605.28 362.995 607.135 353.923C607.15 353.846 607.164 353.769 607.179 353.691L607.174 353.692Z" fill="#555555"/>
<path opacity="0.7" d="M552.87 259.955C552.891 259.912 552.91 259.87 552.931 259.827C598.434 164.741 588.517 119.651 557.587 127.344C543.889 130.751 533.324 144.347 529.764 161.383C528.599 166.961 526.919 172.463 523.854 177.683C519.947 184.338 514.969 186.906 509.913 187.239C499.129 187.948 489.096 194.442 482.709 205.431C479.239 211.402 475.774 217.715 472.329 224.375C414.926 335.363 360.306 388.166 341.357 411.113C335.518 418.185 340.169 430.54 348.201 429.285C370.011 425.875 430.548 411.595 487.508 354.323C495.506 346.283 500.238 334.28 501.085 321.42C501.412 316.458 502.946 310.956 506.224 304.912C513.735 291.07 525.117 283.953 536.565 277.741C543.323 274.072 549.064 267.901 552.87 259.955Z" fill="url(#paint12_linear_904_38386)"/>
<path opacity="0.7" d="M512.822 242.888L557.303 250.458C557.423 250.195 557.549 249.928 557.667 249.666L513.276 242.111C527.813 217.072 542.21 189.753 556.388 160.313L583.257 168.812C583.29 168.527 583.314 168.249 583.345 167.968L556.752 159.556C561.681 149.306 566.582 138.787 571.457 128.03C571.243 127.932 571.022 127.848 570.803 127.76C556.937 158.34 543.369 185.692 530.234 210.123L521.089 181.535C520.912 181.737 520.732 181.933 520.552 182.122L529.779 210.964C512.401 243.222 495.783 270.392 480.234 293.251L466.124 236.162C465.964 236.462 465.804 236.76 465.644 237.058L479.718 294.005C453.424 332.558 430.204 358.782 411.562 376.452C410.452 377.505 409.353 378.527 408.262 379.532L405.754 333.003C405.544 333.291 405.337 333.573 405.128 333.859L407.623 380.124C371.006 413.697 345.886 420.853 339.231 422.238C339.307 422.509 339.389 422.778 339.483 423.041C344.337 422.011 358.034 418.125 378.252 404.525L394.242 416.383C394.327 416.35 394.411 416.317 394.498 416.284C394.666 416.217 394.835 416.151 395.004 416.083C395.038 416.07 395.072 416.055 395.107 416.042L378.945 404.056C388.564 397.527 399.628 388.819 411.895 377.197C424.874 364.902 437.939 350.562 451.002 334.313L488.794 353.013C488.995 352.81 489.195 352.608 489.395 352.402L451.528 333.664C464.978 316.88 478.426 298.066 491.774 277.33C498.814 266.389 505.835 254.898 512.822 242.888Z" fill="url(#paint13_linear_904_38386)"/>
<path opacity="0.7" d="M444.939 146.177C444.941 146.142 444.941 146.108 444.943 146.073C447.222 68.2578 423.977 45.0545 402.748 63.1998C393.346 71.2357 389.885 84.1275 393.024 96.0721C394.052 99.9824 394.657 104.07 394.092 108.59C393.374 114.35 390.418 118.083 386.627 120.484C378.543 125.607 373.038 133.933 371.904 143.416C371.288 148.569 370.794 153.93 370.436 159.491C364.463 252.187 340.526 308.165 333.822 330.408C331.755 337.263 339.619 342.78 345.389 338.52C361.056 326.953 402.874 291.913 427.073 232.192C430.47 223.807 429.979 214.424 426.186 206.208C424.723 203.038 424.007 199.013 424.451 193.899C425.467 182.185 431.797 172.892 438.493 164.122C442.446 158.945 444.747 152.683 444.939 146.177Z" fill="url(#paint14_linear_904_38386)"/>
<path opacity="0.7" d="M408.111 153.178L445.082 138.454C445.084 138.242 445.089 138.024 445.089 137.813L408.192 152.507C410.765 130.905 412.443 107.974 413.219 83.8411L436.908 77.3438C436.835 77.155 436.759 76.9745 436.684 76.7906L413.237 83.2216C413.501 74.823 413.652 66.2721 413.697 57.5886C413.498 57.6217 413.298 57.6665 413.099 57.7095C412.96 82.4018 411.933 104.994 410.232 125.615L393.288 112.147C393.22 112.348 393.15 112.545 393.075 112.738L410.171 126.328C407.898 153.57 404.453 177.378 400.346 198.089L369.716 169.387C369.696 169.641 369.675 169.891 369.655 170.144L400.208 198.775C393.225 233.737 384.355 259.839 376.063 278.73C375.57 279.854 375.075 280.955 374.58 282.044L356.561 254.739C356.498 255.006 356.436 255.269 356.373 255.534L374.289 282.683C357.612 319.094 340.683 334.388 336.022 338.126C336.175 338.258 336.331 338.386 336.494 338.507C339.888 335.766 349.123 327.44 360.038 310.346L376.485 310.63C376.54 310.572 376.593 310.515 376.648 310.457C376.756 310.343 376.862 310.229 376.97 310.115C376.992 310.091 377.013 310.068 377.035 310.045L360.41 309.758C365.582 301.592 371.118 291.466 376.575 279.038C382.35 265.889 387.484 251.457 391.956 235.86L427.608 230.837C427.693 230.625 427.778 230.415 427.861 230.203L392.139 235.236C396.726 219.144 400.61 201.814 403.751 183.356C405.413 173.612 406.865 163.547 408.111 153.178Z" fill="url(#paint15_linear_904_38386)"/>
<path d="M169.461 236.285L199.986 55.7089L197.531 54.6788L201.219 52.5704L201.212 52.592C201.928 52.1166 202.939 52.1464 204.054 52.7874L448.012 193.228C450.015 194.381 451.532 197.339 451.18 199.408L420.413 381.419C420.252 382.368 419.781 382.996 419.127 383.272L419.13 383.274L415.521 385.353L414.901 381.994L415.107 382.057L172.629 242.464C170.626 241.311 169.109 238.353 169.461 236.285Z" fill="url(#paint16_linear_904_38386)"/>
<path d="M446.657 198.165L450.668 196.396C451.118 197.42 451.339 198.498 451.185 199.407L420.418 381.419C420.256 382.368 419.786 382.996 419.132 383.272L419.135 383.274L415.526 385.352L414.906 381.994L415.112 382.057L402.842 374.993L446.657 198.165Z" fill="url(#paint17_linear_904_38386)"/>
<path d="M168.802 244.653L412.76 385.094C414.644 386.179 416.257 385.553 416.587 383.608L447.355 201.597C447.707 199.528 446.19 196.57 444.187 195.418L200.229 54.9769C198.345 53.8921 196.732 54.5198 196.402 56.4625L165.634 238.474C165.282 240.543 166.799 243.501 168.802 244.653Z" fill="#7F7F7F"/>
<g opacity="0.51">
<path d="M203.418 66.5951L438.576 201.968L409.413 373.385L174.415 238.103L203.418 66.5951Z" fill="#222222"/>
</g>
<path opacity="0.7" d="M264.027 506.995C262.135 506.995 260.152 506.532 258.571 505.621L17.0922 366.608C15.4394 365.657 14.491 364.335 14.491 362.982C14.491 361.808 15.187 360.76 16.451 360.033L160.55 277.078C163.106 275.604 167.393 275.77 170.31 277.449L411.787 416.461C413.441 417.412 414.388 418.733 414.388 420.086C414.388 421.261 413.692 422.309 412.428 423.036L268.329 505.99C267.16 506.664 265.627 506.995 264.027 506.995ZM17.9227 365.175L259.401 504.188C261.768 505.55 265.48 505.719 267.5 504.558L411.599 421.603C412.114 421.305 412.729 420.802 412.729 420.086C412.729 419.354 412.068 418.533 410.958 417.895L169.481 278.884C167.113 277.522 163.404 277.352 161.382 278.513L17.2832 361.467C16.7682 361.765 16.1537 362.268 16.1537 362.984C16.152 363.716 16.8131 364.536 17.9227 365.175Z" fill="url(#paint18_linear_904_38386)"/>
<path d="M15.4495 330.825L28.7626 337.758L162.263 260.906C164.497 259.62 168.397 259.781 170.976 261.267L401.226 393.816C403.43 392.587 413.476 387.769 413.476 387.769L408.603 400.431C408.603 400.431 408.586 400.417 408.583 400.416C408.382 400.979 407.948 401.504 407.221 401.923L266.618 482.863C264.384 484.15 260.484 483.987 257.905 482.504L22.2862 346.864C21.2265 346.255 20.5787 345.516 20.3096 344.769L20.2913 344.78L15.4495 330.825Z" fill="url(#paint19_linear_904_38386)"/>
<path d="M17.5071 333.007L258.985 472.018C261.628 473.54 265.626 473.704 267.915 472.387L412.014 389.433C414.303 388.115 414.016 385.815 411.373 384.293L169.895 245.281C167.252 243.759 163.254 243.595 160.965 244.912L16.8659 327.866C14.577 329.184 14.8644 331.485 17.5071 333.007Z" fill="url(#paint20_linear_904_38386)"/>
<path d="M17.5072 331.928L258.986 470.94C261.628 472.462 265.626 472.626 267.915 471.309L412.014 388.355C412.82 387.891 413.288 387.303 413.466 386.672C413.722 387.694 413.268 388.713 412.014 389.433L267.915 472.388C265.626 473.706 261.628 473.54 258.986 472.018L17.5072 333.007C15.7947 332.021 15.0888 330.709 15.4143 329.548C15.6269 330.393 16.313 331.241 17.5072 331.928Z" fill="white"/>
<path d="M331.822 441.948V439.308C331.822 439.058 331.669 438.942 331.481 439.052L322.141 444.429C321.954 444.537 321.801 444.828 321.801 445.078V447.718C321.801 447.968 321.954 448.084 322.141 447.975L331.481 442.597C331.669 442.49 331.822 442.198 331.822 441.948Z" fill="#2D2D2D"/>
<path d="M317.854 449.989V447.347C317.854 447.097 317.701 446.981 317.514 447.091L308.174 452.468C307.986 452.576 307.833 452.868 307.833 453.118V455.759C307.833 456.009 307.986 456.124 308.174 456.016L317.514 450.64C317.701 450.531 317.854 450.239 317.854 449.989Z" fill="#2D2D2D"/>
<path d="M374.447 381.664L173.778 266.146C172.441 265.376 170.792 265.376 169.455 266.147L97.9973 307.37C96.9708 307.962 96.9725 309.439 97.999 310.03L298.573 425.495C299.91 426.266 301.556 426.266 302.892 425.495L374.445 384.326C375.473 383.734 375.473 382.257 374.447 381.664Z" fill="white"/>
<path d="M374.447 384.326L373.728 384.74L173.778 269.634C172.441 268.864 170.792 268.864 169.455 269.635L98.7164 310.444L97.9989 310.03C96.9723 309.439 96.9723 307.962 97.9972 307.37L169.455 266.147C170.792 265.376 172.439 265.376 173.778 266.146L374.447 381.666C375.473 382.257 375.473 383.734 374.447 384.326Z" fill="#A9A9A9"/>
<path d="M164.063 276.588L338.371 376.932L346.121 372.471L171.813 272.126L164.063 276.588Z" fill="#8C8C8C"/>
<path d="M145.061 287.526L308.557 381.646L316.307 377.184L152.813 283.064L145.061 287.526Z" fill="#8C8C8C"/>
<path d="M132.686 294.651L325.184 405.467L332.934 401.005L140.436 290.189L132.686 294.651Z" fill="#8C8C8C"/>
<path d="M120.31 301.776L312.808 412.59L320.558 408.129L128.06 297.314L120.31 301.776Z" fill="#8C8C8C"/>
<path d="M107.935 308.899L300.432 419.715L308.182 415.254L115.686 304.437L107.935 308.899Z" fill="#8C8C8C"/>
<path d="M348.904 382.996L356.654 387.458L364.405 382.996L356.654 378.534L348.904 382.996Z" fill="#8C8C8C"/>
<path d="M321.566 389.135L337.653 398.395L345.402 393.935L329.317 384.673L321.566 389.135Z" fill="#8C8C8C"/>
<path d="M166.053 409.621L111.945 378.473C109.831 377.255 109.831 375.281 111.945 374.064L148.945 352.763C151.059 351.546 154.487 351.546 156.604 352.763L210.712 383.912C212.826 385.129 212.826 387.103 210.712 388.32L173.712 409.621C171.596 410.838 168.168 410.838 166.053 409.621Z" fill="url(#paint21_linear_904_38386)"/>
<path d="M210.71 385.715L156.602 354.567C154.487 353.35 151.059 353.35 148.943 354.567L111.943 375.867C111.291 376.243 110.864 376.694 110.615 377.169C110.055 376.104 110.482 374.905 111.943 374.064L148.943 352.763C151.057 351.546 154.486 351.546 156.602 352.763L210.71 383.912C212.171 384.753 212.598 385.954 212.038 387.019C211.789 386.543 211.364 386.091 210.71 385.715Z" fill="#A9A9A9"/>
<mask id="mask0_904_38386" style="mask-type:luminance" maskUnits="userSpaceOnUse" x="174" y="66" width="265" height="308">
<path d="M203.418 66.5951L438.576 201.968L409.413 373.385L174.415 238.103L203.418 66.5951Z" fill="white"/>
</mask>
<g mask="url(#mask0_904_38386)">
<path d="M169.657 244.994L411.136 384.006C413.779 385.528 417.777 385.692 420.066 384.375L564.165 301.421C566.453 300.103 566.166 297.802 563.523 296.28L322.045 157.269C319.402 155.747 315.404 155.583 313.115 156.899L169.016 239.854C166.727 241.172 167.015 243.474 169.657 244.994Z" fill="url(#paint22_linear_904_38386)"/>
<path d="M411.855 269.919L357.747 238.77C355.633 237.553 355.633 235.579 357.747 234.362L394.747 213.061C396.861 211.844 400.289 211.844 402.406 213.061L456.514 244.209C458.628 245.427 458.628 247.401 456.514 248.618L419.514 269.919C417.398 271.136 413.97 271.136 411.855 269.919Z" fill="url(#paint23_linear_904_38386)"/>
<path d="M456.513 246.013L402.405 214.865C400.291 213.647 396.863 213.647 394.746 214.865L357.747 236.165C357.094 236.541 356.667 236.992 356.418 237.467C355.858 236.402 356.285 235.203 357.747 234.36L394.746 213.06C396.861 211.842 400.289 211.842 402.405 213.06L456.513 244.208C457.975 245.049 458.402 246.25 457.842 247.315C457.591 246.839 457.166 246.389 456.513 246.013Z" fill="#222222"/>
<path d="M480.298 318.596L279.629 203.076C278.292 202.306 276.642 202.306 275.305 203.078L203.848 244.3C202.821 244.892 202.823 246.369 203.85 246.96L404.423 362.426C405.761 363.196 407.407 363.196 408.742 362.426L480.296 321.256C481.326 320.665 481.326 319.187 480.298 318.596Z" fill="#1E1E1E"/>
<path d="M480.297 321.256L479.578 321.67L279.629 206.564C278.291 205.794 276.642 205.795 275.305 206.566L204.567 247.374L203.849 246.96C202.823 246.369 202.823 244.892 203.848 244.3L275.305 203.078C276.642 202.306 278.29 202.306 279.629 203.076L480.297 318.596C481.325 319.187 481.325 320.665 480.297 321.256Z" fill="#222222"/>
<path d="M222.549 241.49L397.366 342.127L390.443 346.114L215.625 245.476L222.549 241.49Z" fill="#222222"/>
<path d="M240.97 230.885L407.129 326.539L400.204 330.527L234.044 234.872L240.97 230.885Z" fill="#222222"/>
<path d="M419.537 333.682L435.056 342.616L428.132 346.602L412.613 337.669L419.537 333.682Z" fill="#222222"/>
<path d="M405.831 347L416.637 353.221L409.712 357.207L398.906 350.986L405.831 347Z" fill="#222222"/>
<path d="M252.511 224.242L446.597 335.973L439.672 339.959L245.586 228.229L252.511 224.242Z" fill="#222222"/>
<path d="M264.052 217.598L458.139 329.328L451.215 333.315L257.127 221.584L264.052 217.598Z" fill="#222222"/>
<path d="M275.595 210.953L469.681 322.684L462.756 326.67L268.67 214.939L275.595 210.953Z" fill="#222222"/>
</g>
<path d="M354.891 218.515L343.319 211.839L343.733 209.3L355.305 215.976L354.891 218.515Z" fill="url(#paint24_linear_904_38386)"/>
<path d="M360.827 221.937L356.661 219.534L357.073 216.995L361.24 219.398L360.827 221.937Z" fill="url(#paint25_linear_904_38386)"/>
<path d="M365.426 224.59L362.594 222.957L363.008 220.418L365.84 222.051L365.426 224.59Z" fill="url(#paint26_linear_904_38386)"/>
<path d="M348.681 221.276L342.374 217.639L342.788 215.1L349.095 218.737L348.681 221.276Z" fill="url(#paint27_linear_904_38386)"/>
<path d="M358.175 226.753L350.448 222.296L350.862 219.757L358.589 224.214L358.175 226.753Z" fill="url(#paint28_linear_904_38386)"/>
<path d="M362.775 229.406L359.945 227.773L360.358 225.234L363.189 226.867L362.775 229.406Z" fill="url(#paint29_linear_904_38386)"/>
<path d="M367.152 231.932L364.321 230.297L364.733 227.758L367.565 229.391L367.152 231.932Z" fill="url(#paint30_linear_904_38386)"/>
<path d="M345.993 226.071L341.431 223.439L341.844 220.9L346.405 223.532L345.993 226.071Z" fill="url(#paint31_linear_904_38386)"/>
<path d="M349.321 227.99L347.761 227.091L348.175 224.552L349.734 225.451L349.321 227.99Z" fill="url(#paint32_linear_904_38386)"/>
<path d="M353.92 230.643L351.088 229.01L351.501 226.471L354.334 228.104L353.92 230.643Z" fill="url(#paint33_linear_904_38386)"/>
<path d="M357.325 238.953L340.486 229.239L340.899 226.7L357.739 236.414L357.325 238.953Z" fill="url(#paint34_linear_904_38386)"/>
<path d="M363.26 242.376L359.094 239.973L359.506 237.434L363.673 239.837L363.26 242.376Z" fill="url(#paint35_linear_904_38386)"/>
<path d="M344.103 237.671L339.542 235.039L339.956 232.5L344.517 235.132L344.103 237.671Z" fill="url(#paint36_linear_904_38386)"/>
<path d="M354.81 243.847L345.872 238.691L346.286 236.152L355.224 241.308L354.81 243.847Z" fill="url(#paint37_linear_904_38386)"/>
<path d="M359.409 246.5L356.579 244.867L356.992 242.328L359.823 243.961L359.409 246.5Z" fill="url(#paint38_linear_904_38386)"/>
<path d="M347.932 246.225L338.597 240.841L339.011 238.3L348.346 243.686L347.932 246.225Z" fill="url(#paint39_linear_904_38386)"/>
<path d="M356.45 251.137L349.699 247.244L350.113 244.705L356.863 248.598L356.45 251.137Z" fill="url(#paint40_linear_904_38386)"/>
<path d="M362.78 254.789L358.219 252.157L358.632 249.618L363.193 252.25L362.78 254.789Z" fill="url(#paint41_linear_904_38386)"/>
<path d="M340.806 248.459L337.653 246.641L338.067 244.1L341.22 245.92L340.806 248.459Z" fill="url(#paint42_linear_904_38386)"/>
<path d="M346.739 251.881L342.573 249.478L342.987 246.939L347.153 249.344L346.739 251.881Z" fill="url(#paint43_linear_904_38386)"/>
<path d="M355.222 256.775L348.508 252.901L348.922 250.362L355.634 254.234L355.222 256.775Z" fill="url(#paint44_linear_904_38386)"/>
<path d="M346.366 258.01L336.708 252.441L337.122 249.902L346.779 255.472L346.366 258.01Z" fill="url(#paint45_linear_904_38386)"/>
<path d="M357.182 264.249L348.135 259.031L348.546 256.492L357.596 261.71L357.182 264.249Z" fill="url(#paint46_linear_904_38386)"/>
<path d="M361.781 266.903L358.951 265.27L359.365 262.731L362.195 264.364L361.781 266.903Z" fill="url(#paint47_linear_904_38386)"/>
<path d="M366.195 269.45L363.364 267.815L363.778 265.276L366.608 266.909L366.195 269.45Z" fill="url(#paint48_linear_904_38386)"/>
<path d="M341.55 261.578L335.763 258.241L336.177 255.702L341.964 259.039L341.55 261.578Z" fill="url(#paint49_linear_904_38386)"/>
<path d="M373.304 229.136L381.329 233.764L381.742 231.225L373.718 226.596L373.304 229.136Z" fill="url(#paint50_linear_904_38386)"/>
<path d="M374.078 235.927L380.385 239.564L380.799 237.025L374.492 233.388L374.078 235.927Z" fill="url(#paint51_linear_904_38386)"/>
<path d="M374.877 242.732L379.44 245.364L379.853 242.825L375.291 240.193L374.877 242.732Z" fill="url(#paint52_linear_904_38386)"/>
<path d="M371.859 247.336L378.495 251.164L378.908 248.625L372.272 244.797L371.859 247.336Z" fill="url(#paint53_linear_904_38386)"/>
<path d="M372.989 254.334L377.551 256.964L377.965 254.425L373.402 251.793L372.989 254.334Z" fill="url(#paint54_linear_904_38386)"/>
<path d="M370.821 259.426L376.606 262.764L377.019 260.225L371.234 256.888L370.821 259.426Z" fill="url(#paint55_linear_904_38386)"/>
<path d="M372.51 266.747L375.663 268.565L376.075 266.026L372.922 264.206L372.51 266.747Z" fill="url(#paint56_linear_904_38386)"/>
<path d="M368.608 270.841L374.718 274.365L375.131 271.826L369.022 268.302L368.608 270.841Z" fill="url(#paint57_linear_904_38386)"/>
<path d="M367.987 276.828L373.773 280.165L374.186 277.627L368.401 274.288L367.987 276.828Z" fill="url(#paint58_linear_904_38386)"/>
<path d="M345.779 264.017L343.318 262.598L343.731 260.059L346.191 261.479L345.779 264.017Z" fill="url(#paint59_linear_904_38386)"/>
<path d="M353.086 268.233L347.546 265.036L347.96 262.497L353.498 265.692L353.086 268.233Z" fill="url(#paint60_linear_904_38386)"/>
<path d="M354.921 287.743L345.573 282.35L345.987 279.811L355.333 285.204L354.921 287.743Z" fill="url(#paint61_linear_904_38386)"/>
<path d="M361.323 291.434L357.641 289.311L358.054 286.772L361.735 288.895L361.323 291.434Z" fill="url(#paint62_linear_904_38386)"/>
<path d="M385.702 320.212C385.247 320.212 384.777 320.083 384.333 319.828L313.717 279.175C312.257 278.335 311.34 276.306 311.63 274.553L327.061 181.356C327.224 180.373 327.754 179.601 328.516 179.243C329.234 178.904 330.088 178.968 330.858 179.412L401.474 220.065C402.934 220.905 403.851 222.935 403.56 224.688L388.131 317.884C387.968 318.869 387.436 319.639 386.676 319.997C386.37 320.141 386.041 320.212 385.702 320.212ZM329.495 180.764C329.417 180.764 329.339 180.778 329.264 180.813C329.028 180.924 328.854 181.226 328.785 181.638L313.354 274.834C313.185 275.864 313.761 277.188 314.59 277.663L385.207 318.318C385.402 318.43 385.682 318.54 385.93 318.422C386.166 318.311 386.34 318.01 386.41 317.597L401.841 224.399C402.012 223.369 401.432 222.046 400.603 221.569L329.986 180.916C329.85 180.84 329.672 180.764 329.495 180.764Z" fill="url(#paint63_linear_904_38386)"/>
<path d="M221.051 127.46L235.877 136.003L236.311 133.438L221.486 124.893L221.051 127.46Z" fill="url(#paint64_linear_904_38386)"/>
<path d="M238.261 137.368L246.339 142.023L246.774 139.456L238.696 134.801L238.261 137.368Z" fill="url(#paint65_linear_904_38386)"/>
<path d="M258.908 149.256L264.751 152.625L265.186 150.058L259.343 146.689L258.908 149.256Z" fill="url(#paint66_linear_904_38386)"/>
<path d="M254.646 146.8L256.642 147.951L257.077 145.384L255.079 144.233L254.646 146.8Z" fill="url(#paint67_linear_904_38386)"/>
<path d="M248.752 143.405L252.38 145.495L252.815 142.928L249.187 140.838L248.752 143.405Z" fill="url(#paint68_linear_904_38386)"/>
<path d="M232.781 147.091L238.626 150.46L239.062 147.893L233.216 144.526L232.781 147.091Z" fill="url(#paint69_linear_904_38386)"/>
<path d="M219.065 139.188L230.517 145.788L230.951 143.221L219.5 136.621L219.065 139.188Z" fill="url(#paint70_linear_904_38386)"/>
<path d="M235.484 180.788L246.935 187.387L247.37 184.82L235.917 178.221L235.484 180.788Z" fill="url(#paint71_linear_904_38386)"/>
<path d="M229.592 177.391L233.218 179.483L233.653 176.916L230.026 174.826L229.592 177.391Z" fill="url(#paint72_linear_904_38386)"/>
<path d="M237.394 169.044L248.845 175.644L249.28 173.077L237.829 166.479L237.394 169.044Z" fill="url(#paint73_linear_904_38386)"/>
<path d="M231.502 165.649L235.13 167.739L235.563 165.174L231.937 163.082L231.502 165.649Z" fill="url(#paint74_linear_904_38386)"/>
<path d="M227.031 231.465L205.457 219.032L205.024 221.599L226.596 234.03L227.031 231.465Z" fill="url(#paint75_linear_904_38386)"/>
<path d="M234.633 235.846L229.295 232.77L228.86 235.337L234.198 238.413L234.633 235.846Z" fill="url(#paint76_linear_904_38386)"/>
<path d="M272.541 238.34L250.969 225.908L250.534 228.474L272.106 240.907L272.541 238.34Z" fill="url(#paint77_linear_904_38386)"/>
<path d="M280.144 242.72L274.807 239.645L274.372 242.212L279.708 245.287L280.144 242.72Z" fill="url(#paint78_linear_904_38386)"/>
<path d="M212.296 216.537L206.451 213.169L206.017 215.736L211.861 219.105L212.296 216.537Z" fill="url(#paint79_linear_904_38386)"/>
<path d="M247.855 224.143L242.01 220.774L241.575 223.341L247.42 226.71L247.855 224.143Z" fill="url(#paint80_linear_904_38386)"/>
<path d="M226.013 224.443L214.56 217.843L214.126 220.41L225.578 227.008L226.013 224.443Z" fill="url(#paint81_linear_904_38386)"/>
<path d="M231.904 227.838L228.276 225.748L227.841 228.313L231.469 230.403L231.904 227.838Z" fill="url(#paint82_linear_904_38386)"/>
<path d="M245.726 235.789L234.275 229.189L233.839 231.756L245.29 238.356L245.726 235.789Z" fill="url(#paint83_linear_904_38386)"/>
<path d="M251.617 239.184L247.989 237.094L247.556 239.66L251.182 241.752L251.617 239.184Z" fill="url(#paint84_linear_904_38386)"/>
<path d="M246.86 230.009L241.017 226.64L240.582 229.207L246.427 232.574L246.86 230.009Z" fill="url(#paint85_linear_904_38386)"/>
<path d="M260.577 237.912L249.126 231.314L248.691 233.881L260.142 240.48L260.577 237.912Z" fill="url(#paint86_linear_904_38386)"/>
<path d="M266.469 241.308L262.843 239.217L262.407 241.785L266.035 243.875L266.469 241.308Z" fill="url(#paint87_linear_904_38386)"/>
<path d="M219.402 214.197L207.444 207.306L207.009 209.873L218.968 216.764L219.402 214.197Z" fill="url(#paint88_linear_904_38386)"/>
<path d="M230.315 220.486L221.667 215.502L221.232 218.069L229.881 223.053L230.315 220.486Z" fill="url(#paint89_linear_904_38386)"/>
<path d="M238.425 225.16L232.58 221.791L232.145 224.358L237.99 227.727L238.425 225.16Z" fill="url(#paint90_linear_904_38386)"/>
<path d="M295.106 251.318L283.149 244.426L282.713 246.993L294.673 253.885L295.106 251.318Z" fill="url(#paint91_linear_904_38386)"/>
<path d="M290.437 173.842L302.395 180.734L302.83 178.167L290.871 171.275L290.437 173.842Z" fill="url(#paint92_linear_904_38386)"/>
<path d="M279.524 167.554L288.172 172.537L288.607 169.97L279.958 164.987L279.524 167.554Z" fill="url(#paint93_linear_904_38386)"/>
<path d="M271.414 162.88L277.259 166.249L277.694 163.681L271.849 160.313L271.414 162.88Z" fill="url(#paint94_linear_904_38386)"/>
<path d="M286.467 165.096L298.425 171.987L298.86 169.42L286.903 162.529L286.467 165.096Z" fill="url(#paint95_linear_904_38386)"/>
<path d="M275.554 158.807L284.201 163.791L284.637 161.224L275.989 156.24L275.554 158.807Z" fill="url(#paint96_linear_904_38386)"/>
<path d="M267.445 154.133L273.289 157.502L273.724 154.935L267.879 151.566L267.445 154.133Z" fill="url(#paint97_linear_904_38386)"/>
<path d="M238.183 175.939L242.221 178.268L242.656 175.701L238.617 173.372L238.183 175.939Z" fill="url(#paint98_linear_904_38386)"/>
<path d="M230.579 171.558L235.917 174.634L236.353 172.067L231.014 168.991L230.579 171.558Z" fill="url(#paint99_linear_904_38386)"/>
<path d="M220.473 208.369L208.515 201.478L208.08 204.043L220.038 210.936L220.473 208.369Z" fill="url(#paint100_linear_904_38386)"/>
<path d="M231.386 214.658L222.737 209.674L222.304 212.241L230.951 217.225L231.386 214.658Z" fill="url(#paint101_linear_904_38386)"/>
<path d="M239.495 219.332L233.65 215.963L233.217 218.53L239.06 221.897L239.495 219.332Z" fill="url(#paint102_linear_904_38386)"/>
<path d="M213.547 197.942L209.507 195.613L209.073 198.18L213.111 200.509L213.547 197.942Z" fill="url(#paint103_linear_904_38386)"/>
<path d="M221.149 202.322L215.812 199.247L215.377 201.814L220.714 204.889L221.149 202.322Z" fill="url(#paint104_linear_904_38386)"/>
<path d="M232.014 208.584L223.415 203.627L222.98 206.195L231.581 211.152L232.014 208.584Z" fill="url(#paint105_linear_904_38386)"/>
<path d="M243.678 159.773L247.716 162.1L248.151 159.533L244.111 157.206L243.678 159.773Z" fill="url(#paint106_linear_904_38386)"/>
<path d="M236.073 155.391L241.412 158.466L241.847 155.901L236.509 152.824L236.073 155.391Z" fill="url(#paint107_linear_904_38386)"/>
<path d="M225.209 149.13L233.81 154.085L234.245 151.518L225.644 146.563L225.209 149.13Z" fill="url(#paint108_linear_904_38386)"/>
<path d="M249.829 169.291L258.429 174.246L258.865 171.681L250.264 166.724L249.829 169.291Z" fill="url(#paint109_linear_904_38386)"/>
<path d="M235.763 161.646L247.355 168.325L247.789 165.758L236.198 159.079L235.763 161.646Z" fill="url(#paint110_linear_904_38386)"/>
<path d="M229.871 158.251L233.497 160.341L233.932 157.774L230.304 155.684L229.871 158.251Z" fill="url(#paint111_linear_904_38386)"/>
<path d="M224.217 154.991L227.843 157.081L228.278 154.514L224.65 152.424L224.217 154.991Z" fill="url(#paint112_linear_904_38386)"/>
<path d="M224.993 188.124L236.444 194.722L236.879 192.157L225.428 185.557L224.993 188.124Z" fill="url(#paint113_linear_904_38386)"/>
<path d="M219.102 184.728L222.729 186.819L223.163 184.252L219.537 182.161L219.102 184.728Z" fill="url(#paint114_linear_904_38386)"/>
<path d="M225.782 195.018L229.82 197.345L230.255 194.778L226.215 192.451L225.782 195.018Z" fill="url(#paint115_linear_904_38386)"/>
<path d="M240.04 190.32L244.08 192.647L244.515 190.081L240.475 187.753L240.04 190.32Z" fill="url(#paint116_linear_904_38386)"/>
<path d="M245.799 193.634L255.491 199.215L255.925 196.648L246.234 191.067L245.799 193.634Z" fill="url(#paint117_linear_904_38386)"/>
<path d="M257.21 200.202L262.974 203.523L263.409 200.956L257.644 197.635L257.21 200.202Z" fill="url(#paint118_linear_904_38386)"/>
<path d="M218.178 190.636L223.516 193.712L223.951 191.146L218.613 188.071L218.178 190.636Z" fill="url(#paint119_linear_904_38386)"/>
<path d="M217.676 196.661L221.714 198.988L222.149 196.421L218.11 194.094L217.676 196.661Z" fill="url(#paint120_linear_904_38386)"/>
<path d="M210.072 192.279L215.41 195.356L215.845 192.789L210.507 189.714L210.072 192.279Z" fill="url(#paint121_linear_904_38386)"/>
<path d="M234.18 186.946L237.806 189.036L238.241 186.471L234.615 184.381L234.18 186.946Z" fill="url(#paint122_linear_904_38386)"/>
<path d="M228.526 183.688L232.152 185.779L232.587 183.211L228.959 181.121L228.526 183.688Z" fill="url(#paint123_linear_904_38386)"/>
<path d="M256.385 154.22L268.758 161.35L269.191 158.782L256.82 151.654L256.385 154.22Z" fill="url(#paint124_linear_904_38386)"/>
<path d="M242.528 146.235L254.121 152.915L254.554 150.349L242.962 143.668L242.528 146.235Z" fill="url(#paint125_linear_904_38386)"/>
<path d="M236.636 142.84L240.263 144.928L240.698 142.363L237.07 140.273L236.636 142.84Z" fill="url(#paint126_linear_904_38386)"/>
<path d="M230.981 139.58L234.608 141.671L235.044 139.105L231.416 137.013L230.981 139.58Z" fill="url(#paint127_linear_904_38386)"/>
<path d="M227.891 137.8L220.064 133.289L220.499 130.723L228.324 135.233L227.891 137.8Z" fill="url(#paint128_linear_904_38386)"/>
<defs>
<linearGradient id="paint0_linear_904_38386" x1="145.789" y1="336.416" x2="143.034" y2="295.629" gradientUnits="userSpaceOnUse">
<stop stop-color="#E2E2E2"/>
<stop offset="1" stop-color="#EFEFEF"/>
</linearGradient>
<linearGradient id="paint1_linear_904_38386" x1="251.766" y1="285.279" x2="241.421" y2="219.192" gradientUnits="userSpaceOnUse">
<stop stop-color="#E2E2E2"/>
<stop offset="1" stop-color="#EFEFEF"/>
</linearGradient>
<linearGradient id="paint2_linear_904_38386" x1="224.347" y1="223.484" x2="217.683" y2="171.215" gradientUnits="userSpaceOnUse">
<stop stop-color="#E2E2E2"/>
<stop offset="1" stop-color="#EFEFEF"/>
</linearGradient>
<linearGradient id="paint3_linear_904_38386" x1="207.661" y1="172.221" x2="202.774" y2="128.055" gradientUnits="userSpaceOnUse">
<stop stop-color="#E2E2E2"/>
<stop offset="1" stop-color="#EFEFEF"/>
</linearGradient>
<linearGradient id="paint4_linear_904_38386" x1="189.252" y1="123.215" x2="184.445" y2="83.8745" gradientUnits="userSpaceOnUse">
<stop stop-color="#E2E2E2"/>
<stop offset="1" stop-color="#EFEFEF"/>
</linearGradient>
<linearGradient id="paint5_linear_904_38386" x1="175.04" y1="80.3901" x2="168.132" y2="36.0919" gradientUnits="userSpaceOnUse">
<stop stop-color="#E2E2E2"/>
<stop offset="1" stop-color="#EFEFEF"/>
</linearGradient>
<linearGradient id="paint6_linear_904_38386" x1="119.258" y1="269.65" x2="116.842" y2="233.227" gradientUnits="userSpaceOnUse">
<stop stop-color="#E2E2E2"/>
<stop offset="1" stop-color="#EFEFEF"/>
</linearGradient>
<linearGradient id="paint7_linear_904_38386" x1="98.7666" y1="204.346" x2="96.8138" y2="173.966" gradientUnits="userSpaceOnUse">
<stop stop-color="#E2E2E2"/>
<stop offset="1" stop-color="#EFEFEF"/>
</linearGradient>
<linearGradient id="paint8_linear_904_38386" x1="90.8789" y1="147.678" x2="88.9915" y2="119.858" gradientUnits="userSpaceOnUse">
<stop stop-color="#E2E2E2"/>
<stop offset="1" stop-color="#EFEFEF"/>
</linearGradient>
<linearGradient id="paint9_linear_904_38386" x1="88.1567" y1="93.9233" x2="85.1718" y2="61.8582" gradientUnits="userSpaceOnUse">
<stop stop-color="#E2E2E2"/>
<stop offset="1" stop-color="#EFEFEF"/>
</linearGradient>
<linearGradient id="paint10_linear_904_38386" x1="132.887" y1="47.075" x2="119.402" y2="3.43195" gradientUnits="userSpaceOnUse">
<stop stop-color="#E2E2E2"/>
<stop offset="1" stop-color="#EFEFEF"/>
</linearGradient>
<linearGradient id="paint11_linear_904_38386" x1="213.099" y1="314.588" x2="142.016" y2="22.6581" gradientUnits="userSpaceOnUse">
<stop stop-color="#E2E2E2"/>
<stop offset="1" stop-color="#EFEFEF"/>
</linearGradient>
<linearGradient id="paint12_linear_904_38386" x1="461.347" y1="126.502" x2="461.347" y2="429.374" gradientUnits="userSpaceOnUse">
<stop stop-color="#F3F3F3"/>
<stop offset="1" stop-color="#C5C5C5"/>
</linearGradient>
<linearGradient id="paint13_linear_904_38386" x1="436.04" y1="257.369" x2="523.194" y2="308.546" gradientUnits="userSpaceOnUse">
<stop offset="1" stop-color="white"/>
</linearGradient>
<linearGradient id="paint14_linear_904_38386" x1="389.291" y1="57.3609" x2="389.291" y2="340.015" gradientUnits="userSpaceOnUse">
<stop stop-color="#F3F3F3"/>
<stop offset="1" stop-color="#C5C5C5"/>
</linearGradient>
<linearGradient id="paint15_linear_904_38386" x1="353.808" y1="195.408" x2="436.697" y2="205.736" gradientUnits="userSpaceOnUse">
<stop offset="1" stop-color="white"/>
</linearGradient>
<linearGradient id="paint16_linear_904_38386" x1="451.234" y1="218.809" x2="169.411" y2="218.809" gradientUnits="userSpaceOnUse">
<stop stop-color="#D1D1D1"/>
<stop offset="1" stop-color="white"/>
</linearGradient>
<linearGradient id="paint17_linear_904_38386" x1="451.232" y1="290.874" x2="402.84" y2="290.874" gradientUnits="userSpaceOnUse">
<stop stop-color="#6C6C6C"/>
<stop offset="1" stop-color="white"/>
</linearGradient>
<linearGradient id="paint18_linear_904_38386" x1="414.391" y1="391.535" x2="14.4911" y2="391.535" gradientUnits="userSpaceOnUse">
<stop stop-color="white"/>
<stop offset="1" stop-color="#959595"/>
</linearGradient>
<linearGradient id="paint19_linear_904_38386" x1="413.477" y1="371.883" x2="15.4497" y2="371.883" gradientUnits="userSpaceOnUse">
<stop stop-color="#595959"/>
<stop offset="1" stop-color="#E1E1E3"/>
</linearGradient>
<linearGradient id="paint20_linear_904_38386" x1="279.738" y1="358.65" x2="-118.501" y2="358.65" gradientUnits="userSpaceOnUse">
<stop offset="1" stop-color="#E6E6E6"/>
</linearGradient>
<linearGradient id="paint21_linear_904_38386" x1="212.297" y1="381.192" x2="110.359" y2="381.192" gradientUnits="userSpaceOnUse">
<stop offset="1" stop-color="#EDEDED"/>
</linearGradient>
<linearGradient id="paint22_linear_904_38386" x1="431.888" y1="270.638" x2="33.6491" y2="270.638" gradientUnits="userSpaceOnUse">
<stop stop-color="#202020"/>
</linearGradient>
<linearGradient id="paint23_linear_904_38386" x1="458.099" y1="241.49" x2="356.161" y2="241.49" gradientUnits="userSpaceOnUse">
<stop/>
<stop offset="1" stop-color="#333333"/>
</linearGradient>
<linearGradient id="paint24_linear_904_38386" x1="349.312" y1="209.3" x2="349.312" y2="218.515" gradientUnits="userSpaceOnUse">
<stop stop-color="#00FF1A"/>
<stop offset="1" stop-color="#009BFF"/>
</linearGradient>
<linearGradient id="paint25_linear_904_38386" x1="358.951" y1="216.995" x2="358.951" y2="221.937" gradientUnits="userSpaceOnUse">
<stop stop-color="#00FF1A"/>
<stop offset="1" stop-color="#009BFF"/>
</linearGradient>
<linearGradient id="paint26_linear_904_38386" x1="364.217" y1="220.418" x2="364.217" y2="224.59" gradientUnits="userSpaceOnUse">
<stop stop-color="#00FF1A"/>
<stop offset="1" stop-color="#009BFF"/>
</linearGradient>
<linearGradient id="paint27_linear_904_38386" x1="345.734" y1="215.1" x2="345.734" y2="221.276" gradientUnits="userSpaceOnUse">
<stop stop-color="#00FF1A"/>
<stop offset="1" stop-color="#009BFF"/>
</linearGradient>
<linearGradient id="paint28_linear_904_38386" x1="354.519" y1="219.757" x2="354.519" y2="226.753" gradientUnits="userSpaceOnUse">
<stop stop-color="#00FF1A"/>
<stop offset="1" stop-color="#009BFF"/>
</linearGradient>
<linearGradient id="paint29_linear_904_38386" x1="361.567" y1="225.234" x2="361.567" y2="229.406" gradientUnits="userSpaceOnUse">
<stop stop-color="#00FF1A"/>
<stop offset="1" stop-color="#009BFF"/>
</linearGradient>
<linearGradient id="paint30_linear_904_38386" x1="365.943" y1="227.758" x2="365.943" y2="231.932" gradientUnits="userSpaceOnUse">
<stop stop-color="#00FF1A"/>
<stop offset="1" stop-color="#009BFF"/>
</linearGradient>
<linearGradient id="paint31_linear_904_38386" x1="343.918" y1="220.9" x2="343.918" y2="226.071" gradientUnits="userSpaceOnUse">
<stop stop-color="#00FF1A"/>
<stop offset="1" stop-color="#009BFF"/>
</linearGradient>
<linearGradient id="paint32_linear_904_38386" x1="348.748" y1="224.552" x2="348.748" y2="227.99" gradientUnits="userSpaceOnUse">
<stop stop-color="#00FF1A"/>
<stop offset="1" stop-color="#009BFF"/>
</linearGradient>
<linearGradient id="paint33_linear_904_38386" x1="352.711" y1="226.471" x2="352.711" y2="230.643" gradientUnits="userSpaceOnUse">
<stop stop-color="#00FF1A"/>
<stop offset="1" stop-color="#009BFF"/>
</linearGradient>
<linearGradient id="paint34_linear_904_38386" x1="349.112" y1="226.7" x2="349.112" y2="238.953" gradientUnits="userSpaceOnUse">
<stop stop-color="#00FF1A"/>
<stop offset="1" stop-color="#009BFF"/>
</linearGradient>
<linearGradient id="paint35_linear_904_38386" x1="361.384" y1="237.434" x2="361.384" y2="242.376" gradientUnits="userSpaceOnUse">
<stop stop-color="#00FF1A"/>
<stop offset="1" stop-color="#009BFF"/>
</linearGradient>
<linearGradient id="paint36_linear_904_38386" x1="342.03" y1="232.5" x2="342.03" y2="237.671" gradientUnits="userSpaceOnUse">
<stop stop-color="#00FF1A"/>
<stop offset="1" stop-color="#009BFF"/>
</linearGradient>
<linearGradient id="paint37_linear_904_38386" x1="350.548" y1="236.152" x2="350.548" y2="243.847" gradientUnits="userSpaceOnUse">
<stop stop-color="#00FF1A"/>
<stop offset="1" stop-color="#009BFF"/>
</linearGradient>
<linearGradient id="paint38_linear_904_38386" x1="358.201" y1="242.328" x2="358.201" y2="246.5" gradientUnits="userSpaceOnUse">
<stop stop-color="#00FF1A"/>
<stop offset="1" stop-color="#009BFF"/>
</linearGradient>
<linearGradient id="paint39_linear_904_38386" x1="343.471" y1="238.3" x2="343.471" y2="246.225" gradientUnits="userSpaceOnUse">
<stop stop-color="#00FF1A"/>
<stop offset="1" stop-color="#009BFF"/>
</linearGradient>
<linearGradient id="paint40_linear_904_38386" x1="353.281" y1="244.705" x2="353.281" y2="251.137" gradientUnits="userSpaceOnUse">
<stop stop-color="#00FF1A"/>
<stop offset="1" stop-color="#009BFF"/>
</linearGradient>
<linearGradient id="paint41_linear_904_38386" x1="360.706" y1="249.618" x2="360.706" y2="254.789" gradientUnits="userSpaceOnUse">
<stop stop-color="#00FF1A"/>
<stop offset="1" stop-color="#009BFF"/>
</linearGradient>
<linearGradient id="paint42_linear_904_38386" x1="339.436" y1="244.1" x2="339.436" y2="248.459" gradientUnits="userSpaceOnUse">
<stop stop-color="#00FF1A"/>
<stop offset="1" stop-color="#009BFF"/>
</linearGradient>
<linearGradient id="paint43_linear_904_38386" x1="344.863" y1="246.939" x2="344.863" y2="251.881" gradientUnits="userSpaceOnUse">
<stop stop-color="#00FF1A"/>
<stop offset="1" stop-color="#009BFF"/>
</linearGradient>
<linearGradient id="paint44_linear_904_38386" x1="352.071" y1="250.362" x2="352.071" y2="256.775" gradientUnits="userSpaceOnUse">
<stop stop-color="#00FF1A"/>
<stop offset="1" stop-color="#009BFF"/>
</linearGradient>
<linearGradient id="paint45_linear_904_38386" x1="341.744" y1="249.902" x2="341.744" y2="258.01" gradientUnits="userSpaceOnUse">
<stop stop-color="#00FF1A"/>
<stop offset="1" stop-color="#009BFF"/>
</linearGradient>
<linearGradient id="paint46_linear_904_38386" x1="352.865" y1="256.492" x2="352.865" y2="264.249" gradientUnits="userSpaceOnUse">
<stop stop-color="#00FF1A"/>
<stop offset="1" stop-color="#009BFF"/>
</linearGradient>
<linearGradient id="paint47_linear_904_38386" x1="360.573" y1="262.731" x2="360.573" y2="266.903" gradientUnits="userSpaceOnUse">
<stop stop-color="#00FF1A"/>
<stop offset="1" stop-color="#009BFF"/>
</linearGradient>
<linearGradient id="paint48_linear_904_38386" x1="364.986" y1="265.276" x2="364.986" y2="269.45" gradientUnits="userSpaceOnUse">
<stop stop-color="#00FF1A"/>
<stop offset="1" stop-color="#009BFF"/>
</linearGradient>
<linearGradient id="paint49_linear_904_38386" x1="338.863" y1="255.702" x2="338.863" y2="261.578" gradientUnits="userSpaceOnUse">
<stop stop-color="#00FF1A"/>
<stop offset="1" stop-color="#009BFF"/>
</linearGradient>
<linearGradient id="paint50_linear_904_38386" x1="377.523" y1="226.596" x2="377.523" y2="233.764" gradientUnits="userSpaceOnUse">
<stop stop-color="#00FF1A"/>
<stop offset="1" stop-color="#009BFF"/>
</linearGradient>
<linearGradient id="paint51_linear_904_38386" x1="377.438" y1="233.388" x2="377.438" y2="239.564" gradientUnits="userSpaceOnUse">
<stop stop-color="#00FF1A"/>
<stop offset="1" stop-color="#009BFF"/>
</linearGradient>
<linearGradient id="paint52_linear_904_38386" x1="377.365" y1="240.193" x2="377.365" y2="245.364" gradientUnits="userSpaceOnUse">
<stop stop-color="#00FF1A"/>
<stop offset="1" stop-color="#009BFF"/>
</linearGradient>
<linearGradient id="paint53_linear_904_38386" x1="375.384" y1="244.797" x2="375.384" y2="251.164" gradientUnits="userSpaceOnUse">
<stop stop-color="#00FF1A"/>
<stop offset="1" stop-color="#009BFF"/>
</linearGradient>
<linearGradient id="paint54_linear_904_38386" x1="375.477" y1="251.793" x2="375.477" y2="256.964" gradientUnits="userSpaceOnUse">
<stop stop-color="#00FF1A"/>
<stop offset="1" stop-color="#009BFF"/>
</linearGradient>
<linearGradient id="paint55_linear_904_38386" x1="373.92" y1="256.888" x2="373.92" y2="262.764" gradientUnits="userSpaceOnUse">
<stop stop-color="#00FF1A"/>
<stop offset="1" stop-color="#009BFF"/>
</linearGradient>
<linearGradient id="paint56_linear_904_38386" x1="374.292" y1="264.206" x2="374.292" y2="268.565" gradientUnits="userSpaceOnUse">
<stop stop-color="#00FF1A"/>
<stop offset="1" stop-color="#009BFF"/>
</linearGradient>
<linearGradient id="paint57_linear_904_38386" x1="371.87" y1="268.302" x2="371.87" y2="274.365" gradientUnits="userSpaceOnUse">
<stop stop-color="#00FF1A"/>
<stop offset="1" stop-color="#009BFF"/>
</linearGradient>
<linearGradient id="paint58_linear_904_38386" x1="371.087" y1="274.288" x2="371.087" y2="280.165" gradientUnits="userSpaceOnUse">
<stop stop-color="#00FF1A"/>
<stop offset="1" stop-color="#009BFF"/>
</linearGradient>
<linearGradient id="paint59_linear_904_38386" x1="344.754" y1="260.059" x2="344.754" y2="264.017" gradientUnits="userSpaceOnUse">
<stop stop-color="#00FF1A"/>
<stop offset="1" stop-color="#009BFF"/>
</linearGradient>
<linearGradient id="paint60_linear_904_38386" x1="350.522" y1="262.497" x2="350.522" y2="268.233" gradientUnits="userSpaceOnUse">
<stop stop-color="#00FF1A"/>
<stop offset="1" stop-color="#009BFF"/>
</linearGradient>
<linearGradient id="paint61_linear_904_38386" x1="350.453" y1="279.811" x2="350.453" y2="287.743" gradientUnits="userSpaceOnUse">
<stop stop-color="#00FF1A"/>
<stop offset="1" stop-color="#009BFF"/>
</linearGradient>
<linearGradient id="paint62_linear_904_38386" x1="359.688" y1="286.772" x2="359.688" y2="291.434" gradientUnits="userSpaceOnUse">
<stop stop-color="#00FF1A"/>
<stop offset="1" stop-color="#009BFF"/>
</linearGradient>
<linearGradient id="paint63_linear_904_38386" x1="357.595" y1="179.027" x2="357.595" y2="320.212" gradientUnits="userSpaceOnUse">
<stop stop-color="#00FF1A"/>
<stop offset="1" stop-color="#009BFF"/>
</linearGradient>
<linearGradient id="paint64_linear_904_38386" x1="228.681" y1="124.893" x2="228.681" y2="136.003" gradientUnits="userSpaceOnUse">
<stop stop-color="#00FF1A"/>
<stop offset="1" stop-color="#009BFF"/>
</linearGradient>
<linearGradient id="paint65_linear_904_38386" x1="242.517" y1="134.801" x2="242.517" y2="142.023" gradientUnits="userSpaceOnUse">
<stop stop-color="#00FF1A"/>
<stop offset="1" stop-color="#009BFF"/>
</linearGradient>
<linearGradient id="paint66_linear_904_38386" x1="262.047" y1="146.689" x2="262.047" y2="152.625" gradientUnits="userSpaceOnUse">
<stop stop-color="#00FF1A"/>
<stop offset="1" stop-color="#009BFF"/>
</linearGradient>
<linearGradient id="paint67_linear_904_38386" x1="255.861" y1="144.233" x2="255.861" y2="147.951" gradientUnits="userSpaceOnUse">
<stop stop-color="#00FF1A"/>
<stop offset="1" stop-color="#009BFF"/>
</linearGradient>
<linearGradient id="paint68_linear_904_38386" x1="250.783" y1="140.838" x2="250.783" y2="145.495" gradientUnits="userSpaceOnUse">
<stop stop-color="#00FF1A"/>
<stop offset="1" stop-color="#009BFF"/>
</linearGradient>
<linearGradient id="paint69_linear_904_38386" x1="235.921" y1="144.526" x2="235.921" y2="150.46" gradientUnits="userSpaceOnUse">
<stop stop-color="#00FF1A"/>
<stop offset="1" stop-color="#009BFF"/>
</linearGradient>
<linearGradient id="paint70_linear_904_38386" x1="225.008" y1="136.621" x2="225.008" y2="145.788" gradientUnits="userSpaceOnUse">
<stop stop-color="#00FF1A"/>
<stop offset="1" stop-color="#009BFF"/>
</linearGradient>
<linearGradient id="paint71_linear_904_38386" x1="241.427" y1="178.221" x2="241.427" y2="187.387" gradientUnits="userSpaceOnUse">
<stop stop-color="#00FF1A"/>
<stop offset="1" stop-color="#009BFF"/>
</linearGradient>
<linearGradient id="paint72_linear_904_38386" x1="231.623" y1="174.826" x2="231.623" y2="179.483" gradientUnits="userSpaceOnUse">
<stop stop-color="#00FF1A"/>
<stop offset="1" stop-color="#009BFF"/>
</linearGradient>
<linearGradient id="paint73_linear_904_38386" x1="243.337" y1="166.479" x2="243.337" y2="175.644" gradientUnits="userSpaceOnUse">
<stop stop-color="#00FF1A"/>
<stop offset="1" stop-color="#009BFF"/>
</linearGradient>
<linearGradient id="paint74_linear_904_38386" x1="233.533" y1="163.082" x2="233.533" y2="167.739" gradientUnits="userSpaceOnUse">
<stop stop-color="#00FF1A"/>
<stop offset="1" stop-color="#009BFF"/>
</linearGradient>
<linearGradient id="paint75_linear_904_38386" x1="216.027" y1="219.032" x2="216.027" y2="234.03" gradientUnits="userSpaceOnUse">
<stop stop-color="#00FF1A"/>
<stop offset="1" stop-color="#009BFF"/>
</linearGradient>
<linearGradient id="paint76_linear_904_38386" x1="231.746" y1="232.77" x2="231.746" y2="238.413" gradientUnits="userSpaceOnUse">
<stop stop-color="#00FF1A"/>
<stop offset="1" stop-color="#009BFF"/>
</linearGradient>
<linearGradient id="paint77_linear_904_38386" x1="261.538" y1="225.908" x2="261.538" y2="240.907" gradientUnits="userSpaceOnUse">
<stop stop-color="#00FF1A"/>
<stop offset="1" stop-color="#009BFF"/>
</linearGradient>
<linearGradient id="paint78_linear_904_38386" x1="277.258" y1="239.645" x2="277.258" y2="245.287" gradientUnits="userSpaceOnUse">
<stop stop-color="#00FF1A"/>
<stop offset="1" stop-color="#009BFF"/>
</linearGradient>
<linearGradient id="paint79_linear_904_38386" x1="209.157" y1="213.169" x2="209.157" y2="219.105" gradientUnits="userSpaceOnUse">
<stop stop-color="#00FF1A"/>
<stop offset="1" stop-color="#009BFF"/>
</linearGradient>
<linearGradient id="paint80_linear_904_38386" x1="244.715" y1="220.774" x2="244.715" y2="226.71" gradientUnits="userSpaceOnUse">
<stop stop-color="#00FF1A"/>
<stop offset="1" stop-color="#009BFF"/>
</linearGradient>
<linearGradient id="paint81_linear_904_38386" x1="220.07" y1="217.843" x2="220.07" y2="227.008" gradientUnits="userSpaceOnUse">
<stop stop-color="#00FF1A"/>
<stop offset="1" stop-color="#009BFF"/>
</linearGradient>
<linearGradient id="paint82_linear_904_38386" x1="229.873" y1="225.748" x2="229.873" y2="230.403" gradientUnits="userSpaceOnUse">
<stop stop-color="#00FF1A"/>
<stop offset="1" stop-color="#009BFF"/>
</linearGradient>
<linearGradient id="paint83_linear_904_38386" x1="239.783" y1="229.189" x2="239.783" y2="238.356" gradientUnits="userSpaceOnUse">
<stop stop-color="#00FF1A"/>
<stop offset="1" stop-color="#009BFF"/>
</linearGradient>
<linearGradient id="paint84_linear_904_38386" x1="249.587" y1="237.094" x2="249.587" y2="241.752" gradientUnits="userSpaceOnUse">
<stop stop-color="#00FF1A"/>
<stop offset="1" stop-color="#009BFF"/>
</linearGradient>
<linearGradient id="paint85_linear_904_38386" x1="243.721" y1="226.64" x2="243.721" y2="232.574" gradientUnits="userSpaceOnUse">
<stop stop-color="#00FF1A"/>
<stop offset="1" stop-color="#009BFF"/>
</linearGradient>
<linearGradient id="paint86_linear_904_38386" x1="254.634" y1="231.314" x2="254.634" y2="240.48" gradientUnits="userSpaceOnUse">
<stop stop-color="#00FF1A"/>
<stop offset="1" stop-color="#009BFF"/>
</linearGradient>
<linearGradient id="paint87_linear_904_38386" x1="264.438" y1="239.217" x2="264.438" y2="243.875" gradientUnits="userSpaceOnUse">
<stop stop-color="#00FF1A"/>
<stop offset="1" stop-color="#009BFF"/>
</linearGradient>
<linearGradient id="paint88_linear_904_38386" x1="213.205" y1="207.306" x2="213.205" y2="216.764" gradientUnits="userSpaceOnUse">
<stop stop-color="#00FF1A"/>
<stop offset="1" stop-color="#009BFF"/>
</linearGradient>
<linearGradient id="paint89_linear_904_38386" x1="225.773" y1="215.502" x2="225.773" y2="223.053" gradientUnits="userSpaceOnUse">
<stop stop-color="#00FF1A"/>
<stop offset="1" stop-color="#009BFF"/>
</linearGradient>
<linearGradient id="paint90_linear_904_38386" x1="235.285" y1="221.791" x2="235.285" y2="227.727" gradientUnits="userSpaceOnUse">
<stop stop-color="#00FF1A"/>
<stop offset="1" stop-color="#009BFF"/>
</linearGradient>
<linearGradient id="paint91_linear_904_38386" x1="288.91" y1="244.426" x2="288.91" y2="253.885" gradientUnits="userSpaceOnUse">
<stop stop-color="#00FF1A"/>
<stop offset="1" stop-color="#009BFF"/>
</linearGradient>
<linearGradient id="paint92_linear_904_38386" x1="296.634" y1="171.275" x2="296.634" y2="180.734" gradientUnits="userSpaceOnUse">
<stop stop-color="#00FF1A"/>
<stop offset="1" stop-color="#009BFF"/>
</linearGradient>
<linearGradient id="paint93_linear_904_38386" x1="284.066" y1="164.987" x2="284.066" y2="172.537" gradientUnits="userSpaceOnUse">
<stop stop-color="#00FF1A"/>
<stop offset="1" stop-color="#009BFF"/>
</linearGradient>
<linearGradient id="paint94_linear_904_38386" x1="274.554" y1="160.313" x2="274.554" y2="166.249" gradientUnits="userSpaceOnUse">
<stop stop-color="#00FF1A"/>
<stop offset="1" stop-color="#009BFF"/>
</linearGradient>
<linearGradient id="paint95_linear_904_38386" x1="292.664" y1="162.529" x2="292.664" y2="171.987" gradientUnits="userSpaceOnUse">
<stop stop-color="#00FF1A"/>
<stop offset="1" stop-color="#009BFF"/>
</linearGradient>
<linearGradient id="paint96_linear_904_38386" x1="280.095" y1="156.24" x2="280.095" y2="163.791" gradientUnits="userSpaceOnUse">
<stop stop-color="#00FF1A"/>
<stop offset="1" stop-color="#009BFF"/>
</linearGradient>
<linearGradient id="paint97_linear_904_38386" x1="270.585" y1="151.566" x2="270.585" y2="157.502" gradientUnits="userSpaceOnUse">
<stop stop-color="#00FF1A"/>
<stop offset="1" stop-color="#009BFF"/>
</linearGradient>
<linearGradient id="paint98_linear_904_38386" x1="240.42" y1="173.372" x2="240.42" y2="178.268" gradientUnits="userSpaceOnUse">
<stop stop-color="#00FF1A"/>
<stop offset="1" stop-color="#009BFF"/>
</linearGradient>
<linearGradient id="paint99_linear_904_38386" x1="233.466" y1="168.991" x2="233.466" y2="174.634" gradientUnits="userSpaceOnUse">
<stop stop-color="#00FF1A"/>
<stop offset="1" stop-color="#009BFF"/>
</linearGradient>
<linearGradient id="paint100_linear_904_38386" x1="214.277" y1="201.478" x2="214.277" y2="210.936" gradientUnits="userSpaceOnUse">
<stop stop-color="#00FF1A"/>
<stop offset="1" stop-color="#009BFF"/>
</linearGradient>
<linearGradient id="paint101_linear_904_38386" x1="226.845" y1="209.674" x2="226.845" y2="217.225" gradientUnits="userSpaceOnUse">
<stop stop-color="#00FF1A"/>
<stop offset="1" stop-color="#009BFF"/>
</linearGradient>
<linearGradient id="paint102_linear_904_38386" x1="236.356" y1="215.963" x2="236.356" y2="221.897" gradientUnits="userSpaceOnUse">
<stop stop-color="#00FF1A"/>
<stop offset="1" stop-color="#009BFF"/>
</linearGradient>
<linearGradient id="paint103_linear_904_38386" x1="211.31" y1="195.613" x2="211.31" y2="200.509" gradientUnits="userSpaceOnUse">
<stop stop-color="#00FF1A"/>
<stop offset="1" stop-color="#009BFF"/>
</linearGradient>
<linearGradient id="paint104_linear_904_38386" x1="218.263" y1="199.247" x2="218.263" y2="204.889" gradientUnits="userSpaceOnUse">
<stop stop-color="#00FF1A"/>
<stop offset="1" stop-color="#009BFF"/>
</linearGradient>
<linearGradient id="paint105_linear_904_38386" x1="227.497" y1="203.627" x2="227.497" y2="211.152" gradientUnits="userSpaceOnUse">
<stop stop-color="#00FF1A"/>
<stop offset="1" stop-color="#009BFF"/>
</linearGradient>
<linearGradient id="paint106_linear_904_38386" x1="245.914" y1="157.206" x2="245.914" y2="162.1" gradientUnits="userSpaceOnUse">
<stop stop-color="#00FF1A"/>
<stop offset="1" stop-color="#009BFF"/>
</linearGradient>
<linearGradient id="paint107_linear_904_38386" x1="238.96" y1="152.824" x2="238.96" y2="158.466" gradientUnits="userSpaceOnUse">
<stop stop-color="#00FF1A"/>
<stop offset="1" stop-color="#009BFF"/>
</linearGradient>
<linearGradient id="paint108_linear_904_38386" x1="229.727" y1="146.563" x2="229.727" y2="154.085" gradientUnits="userSpaceOnUse">
<stop stop-color="#00FF1A"/>
<stop offset="1" stop-color="#009BFF"/>
</linearGradient>
<linearGradient id="paint109_linear_904_38386" x1="254.347" y1="166.724" x2="254.347" y2="174.246" gradientUnits="userSpaceOnUse">
<stop stop-color="#00FF1A"/>
<stop offset="1" stop-color="#009BFF"/>
</linearGradient>
<linearGradient id="paint110_linear_904_38386" x1="241.776" y1="159.079" x2="241.776" y2="168.325" gradientUnits="userSpaceOnUse">
<stop stop-color="#00FF1A"/>
<stop offset="1" stop-color="#009BFF"/>
</linearGradient>
<linearGradient id="paint111_linear_904_38386" x1="231.901" y1="155.684" x2="231.901" y2="160.341" gradientUnits="userSpaceOnUse">
<stop stop-color="#00FF1A"/>
<stop offset="1" stop-color="#009BFF"/>
</linearGradient>
<linearGradient id="paint112_linear_904_38386" x1="226.247" y1="152.424" x2="226.247" y2="157.081" gradientUnits="userSpaceOnUse">
<stop stop-color="#00FF1A"/>
<stop offset="1" stop-color="#009BFF"/>
</linearGradient>
<linearGradient id="paint113_linear_904_38386" x1="230.936" y1="185.557" x2="230.936" y2="194.722" gradientUnits="userSpaceOnUse">
<stop stop-color="#00FF1A"/>
<stop offset="1" stop-color="#009BFF"/>
</linearGradient>
<linearGradient id="paint114_linear_904_38386" x1="221.132" y1="182.161" x2="221.132" y2="186.819" gradientUnits="userSpaceOnUse">
<stop stop-color="#00FF1A"/>
<stop offset="1" stop-color="#009BFF"/>
</linearGradient>
<linearGradient id="paint115_linear_904_38386" x1="228.019" y1="192.451" x2="228.019" y2="197.345" gradientUnits="userSpaceOnUse">
<stop stop-color="#00FF1A"/>
<stop offset="1" stop-color="#009BFF"/>
</linearGradient>
<linearGradient id="paint116_linear_904_38386" x1="242.278" y1="187.753" x2="242.278" y2="192.647" gradientUnits="userSpaceOnUse">
<stop stop-color="#00FF1A"/>
<stop offset="1" stop-color="#009BFF"/>
</linearGradient>
<linearGradient id="paint117_linear_904_38386" x1="250.862" y1="191.067" x2="250.862" y2="199.215" gradientUnits="userSpaceOnUse">
<stop stop-color="#00FF1A"/>
<stop offset="1" stop-color="#009BFF"/>
</linearGradient>
<linearGradient id="paint118_linear_904_38386" x1="260.31" y1="197.635" x2="260.31" y2="203.523" gradientUnits="userSpaceOnUse">
<stop stop-color="#00FF1A"/>
<stop offset="1" stop-color="#009BFF"/>
</linearGradient>
<linearGradient id="paint119_linear_904_38386" x1="221.065" y1="188.071" x2="221.065" y2="193.712" gradientUnits="userSpaceOnUse">
<stop stop-color="#00FF1A"/>
<stop offset="1" stop-color="#009BFF"/>
</linearGradient>
<linearGradient id="paint120_linear_904_38386" x1="219.913" y1="194.094" x2="219.913" y2="198.988" gradientUnits="userSpaceOnUse">
<stop stop-color="#00FF1A"/>
<stop offset="1" stop-color="#009BFF"/>
</linearGradient>
<linearGradient id="paint121_linear_904_38386" x1="212.959" y1="189.714" x2="212.959" y2="195.356" gradientUnits="userSpaceOnUse">
<stop stop-color="#00FF1A"/>
<stop offset="1" stop-color="#009BFF"/>
</linearGradient>
<linearGradient id="paint122_linear_904_38386" x1="236.211" y1="184.381" x2="236.211" y2="189.036" gradientUnits="userSpaceOnUse">
<stop stop-color="#00FF1A"/>
<stop offset="1" stop-color="#009BFF"/>
</linearGradient>
<linearGradient id="paint123_linear_904_38386" x1="230.556" y1="181.121" x2="230.556" y2="185.779" gradientUnits="userSpaceOnUse">
<stop stop-color="#00FF1A"/>
<stop offset="1" stop-color="#009BFF"/>
</linearGradient>
<linearGradient id="paint124_linear_904_38386" x1="262.788" y1="151.654" x2="262.788" y2="161.35" gradientUnits="userSpaceOnUse">
<stop stop-color="#00FF1A"/>
<stop offset="1" stop-color="#009BFF"/>
</linearGradient>
<linearGradient id="paint125_linear_904_38386" x1="248.541" y1="143.668" x2="248.541" y2="152.915" gradientUnits="userSpaceOnUse">
<stop stop-color="#00FF1A"/>
<stop offset="1" stop-color="#009BFF"/>
</linearGradient>
<linearGradient id="paint126_linear_904_38386" x1="238.667" y1="140.273" x2="238.667" y2="144.928" gradientUnits="userSpaceOnUse">
<stop stop-color="#00FF1A"/>
<stop offset="1" stop-color="#009BFF"/>
</linearGradient>
<linearGradient id="paint127_linear_904_38386" x1="233.012" y1="137.013" x2="233.012" y2="141.671" gradientUnits="userSpaceOnUse">
<stop stop-color="#00FF1A"/>
<stop offset="1" stop-color="#009BFF"/>
</linearGradient>
<linearGradient id="paint128_linear_904_38386" x1="224.194" y1="130.723" x2="224.194" y2="137.8" gradientUnits="userSpaceOnUse">
<stop stop-color="#00FF1A"/>
<stop offset="1" stop-color="#009BFF"/>
</linearGradient>
</defs>
</svg>
