<svg width="157" height="68" viewBox="0 0 157 68" fill="none" xmlns="http://www.w3.org/2000/svg">
<path d="M33.7733 6.62227C36.8454 6.62227 39.3357 9.11267 39.3358 12.1848C39.3358 15.257 36.8455 17.7473 33.7733 17.7473C30.7012 17.7472 28.2108 15.2569 28.2108 12.1848C28.2109 9.11274 30.7013 6.62239 33.7733 6.62227ZM33.7079 9.80098C32.3547 9.80098 31.2577 10.898 31.2577 12.2512C31.2577 13.6044 32.3547 14.7014 33.7079 14.7014C35.0609 14.7011 36.1581 13.6043 36.1581 12.2512C36.158 10.8981 35.0609 9.80121 33.7079 9.80098Z" fill="#01C347"/>
<path d="M16.688 0C19.7601 0 22.2504 2.4904 22.2505 5.5625C22.2505 8.6347 19.7602 11.125 16.688 11.125C13.6159 11.1249 11.1255 8.63463 11.1255 5.5625C11.1256 2.49047 13.616 0.000116478 16.688 0ZM16.6216 3.17871C15.2685 3.17888 14.1714 4.27579 14.1714 5.62891C14.1714 6.98204 15.2685 8.07894 16.6216 8.0791C17.9748 8.0791 19.0718 6.98214 19.0718 5.62891C19.0718 4.27568 17.9748 3.17871 16.6216 3.17871Z" fill="#01C347"/>
<path d="M5.5625 23.178C8.63463 23.178 11.1249 25.6684 11.125 28.7405C11.125 31.8127 8.6347 34.303 5.5625 34.303C2.4904 34.3029 0 31.8127 0 28.7405C0.000116475 25.6685 2.49047 23.1781 5.5625 23.178ZM5.49609 26.3567C4.14294 26.3568 3.0459 27.4538 3.0459 28.8069C3.04593 30.1601 4.14296 31.257 5.49609 31.2571C6.8493 31.2571 7.94625 30.1601 7.94629 28.8069C7.94629 27.4537 6.84933 26.3567 5.49609 26.3567Z" fill="#01C347"/>
<path d="M22.1186 22.8469L29.5355 14.9002L32.052 16.8868C30.3744 18.719 26.558 22.5419 25.3635 23.8402C23.8404 25.4958 23.5976 27.4163 23.6417 28.4758L23.8404 39.0053L20.463 35.0319V28.4758C20.463 25.3501 20.9266 24.2376 22.1186 22.8469Z" fill="#01C347"/>
<path d="M9.80139 31.0585C11.6117 32.9129 16.8869 37.8349 19.6686 40.9257C21.4565 42.9123 21.7873 44.1707 21.986 46.2235V62.2968L18.6735 61.2782C18.6703 58.1329 18.609 52.8992 18.609 49.8661C18.609 44.3036 17.6812 44.1709 16.2906 42.5155L7.54944 33.6415L9.80139 31.0585Z" fill="url(#paint0_linear_1524_259)"/>
<path d="M36.8186 1.52314C55.4926 3.90705 55.3616 19.3356 55.0305 22.5153C54.7656 25.0582 55.3172 25.959 55.6262 26.0915C56.5092 27.3056 58.6199 30.1713 59.9973 31.9196C61.7188 34.1047 61.7853 34.966 61.3879 35.8269C60.9906 36.6876 59.9969 37.0844 58.5403 37.3493C57.3748 37.5612 57.7453 38.939 58.0764 39.6013C58.9372 41.0581 58.7387 42.184 57.8118 42.78C56.905 43.3629 57.4807 43.6406 57.8118 44.1042C58.4474 45.2166 57.5467 46.1568 57.0168 46.488C55.8248 47.8124 56.733 48.5413 57.0168 50.528C57.5466 54.2362 54.5008 55.473 52.9114 55.6276C53.4184 55.76 53.0683 55.8782 47.6135 55.2956C42.1572 54.7129 40.6161 58.8052 40.5276 60.9245V67.9987L29.4221 64.5837L29.5344 53.0446C29.3358 46.3562 30.925 47.2829 34.0374 47.2829C37.3485 47.2829 36.488 46.0245 35.9583 45.0974C34.8459 42.3427 37.6139 41.787 39.137 41.8532C42.8451 41.6544 42.7788 38.2773 38.8059 38.2771C35.6934 38.2771 35.4947 34.7009 39.137 34.7009C42.1836 34.7008 41.0568 33.0451 40.3284 32.1843C38.2757 29.8003 40.858 27.482 42.3811 25.694C51.8112 12.9793 42.6021 4.28243 36.8186 1.52314Z" fill="#44BFFF"/>
<path d="M18.1449 10.7943C18.1228 15.6726 18.0919 26.0778 18.1449 28.6742C18.1979 31.2702 18.4096 32.1848 19.1381 33.1781C20.6171 34.7455 24.0922 38.2502 25.3636 39.9984C26.6349 41.7465 26.7976 44.2364 26.8197 45.2299V63.7836L23.5756 62.7856V45.2299C23.5755 42.7404 22.3835 41.0144 21.7875 40.4623C20.7942 39.4249 18.3966 36.9262 16.7543 35.2309C15.1119 33.5356 14.9662 31.4555 14.9662 29.3363V10.7943H18.1449Z" fill="url(#paint1_linear_1524_259)"/>
<path d="M72.0211 34.9998V11.7271H87.4302V15.7839H76.9416V21.3294H86.4075V25.3862H76.9416V34.9998H72.0211ZM94.5299 11.7271V34.9998H89.689V11.7271H94.5299ZM105.334 35.3407C103.569 35.3407 102.042 34.9657 100.755 34.2157C99.4742 33.4582 98.4856 32.4051 97.7886 31.0567C97.0917 29.7006 96.7432 28.1286 96.7432 26.3407C96.7432 24.5377 97.0917 22.962 97.7886 21.6135C98.4856 20.2574 99.4742 19.2044 100.755 18.4544C102.042 17.6968 103.569 17.318 105.334 17.318C107.099 17.318 108.622 17.6968 109.902 18.4544C111.19 19.2044 112.183 20.2574 112.88 21.6135C113.577 22.962 113.925 24.5377 113.925 26.3407C113.925 28.1286 113.577 29.7006 112.88 31.0567C112.183 32.4051 111.19 33.4582 109.902 34.2157C108.622 34.9657 107.099 35.3407 105.334 35.3407ZM105.357 31.5907C106.16 31.5907 106.83 31.3635 107.368 30.9089C107.906 30.4468 108.311 29.818 108.584 29.0226C108.864 28.2271 109.005 27.3218 109.005 26.3067C109.005 25.2915 108.864 24.3862 108.584 23.5907C108.311 22.7953 107.906 22.1665 107.368 21.7044C106.83 21.2423 106.16 21.0112 105.357 21.0112C104.546 21.0112 103.864 21.2423 103.311 21.7044C102.766 22.1665 102.353 22.7953 102.073 23.5907C101.8 24.3862 101.664 25.2915 101.664 26.3067C101.664 27.3218 101.8 28.2271 102.073 29.0226C102.353 29.818 102.766 30.4468 103.311 30.9089C103.864 31.3635 104.546 31.5907 105.357 31.5907ZM119.118 34.9998L114.368 17.5453H119.266L121.971 29.2726H122.13L124.948 17.5453H129.755L132.618 29.2044H132.766L135.425 17.5453H140.312L135.573 34.9998H130.448L127.448 24.0226H127.232L124.232 34.9998H119.118ZM84.6461 48.4203C84.5552 47.5036 84.1651 46.7915 83.4757 46.2839C82.7863 45.7763 81.8507 45.5226 80.6689 45.5226C79.8658 45.5226 79.1878 45.6362 78.6348 45.8635C78.0817 46.0832 77.6575 46.39 77.362 46.7839C77.0742 47.1779 76.9302 47.6248 76.9302 48.1248C76.9151 48.5415 77.0022 48.9051 77.1916 49.2157C77.3886 49.5263 77.6575 49.7953 77.9984 50.0226C78.3393 50.2423 78.7333 50.4354 79.1802 50.6021C79.6272 50.7612 80.1045 50.8976 80.6121 51.0112L82.703 51.5112C83.7181 51.7385 84.6499 52.0415 85.4984 52.4203C86.3469 52.7991 87.0817 53.265 87.703 53.818C88.3242 54.371 88.8052 55.0226 89.1461 55.7726C89.4946 56.5226 89.6727 57.3824 89.6802 58.3521C89.6727 59.7763 89.309 61.0112 88.5893 62.0567C87.8772 63.0945 86.8469 63.9013 85.4984 64.4771C84.1575 65.0453 82.5401 65.3294 80.6461 65.3294C78.7674 65.3294 77.131 65.0415 75.737 64.4657C74.3507 63.89 73.2674 63.0377 72.487 61.9089C71.7143 60.7726 71.309 59.3673 71.2711 57.693H76.0325C76.0855 58.4733 76.309 59.1248 76.703 59.6476C77.1045 60.1627 77.6386 60.5529 78.3052 60.818C78.9795 61.0756 79.7408 61.2044 80.5893 61.2044C81.4227 61.2044 82.1461 61.0832 82.7598 60.8407C83.381 60.5983 83.862 60.2612 84.203 59.8294C84.5439 59.3976 84.7143 58.9013 84.7143 58.3407C84.7143 57.818 84.559 57.3786 84.2484 57.0226C83.9454 56.6665 83.4984 56.3635 82.9075 56.1135C82.3242 55.8635 81.6083 55.6362 80.7598 55.4317L78.2257 54.7953C76.2636 54.318 74.7143 53.5718 73.578 52.5567C72.4416 51.5415 71.8772 50.1741 71.8848 48.4544C71.8772 47.0453 72.2522 45.8142 73.0098 44.7612C73.7749 43.7082 74.8242 42.8862 76.1575 42.2953C77.4908 41.7044 79.006 41.4089 80.703 41.4089C82.4302 41.4089 83.9378 41.7044 85.2257 42.2953C86.5211 42.8862 87.5287 43.7082 88.2484 44.7612C88.9681 45.8142 89.3393 47.0339 89.362 48.4203H84.6461ZM101.223 47.5453V51.1817H90.7117V47.5453H101.223ZM93.0981 43.3635H97.939V59.6362C97.939 60.0832 98.0072 60.4317 98.1435 60.6817C98.2799 60.9241 98.4693 61.0945 98.7117 61.193C98.9617 61.2915 99.2496 61.3407 99.5753 61.3407C99.8026 61.3407 100.03 61.3218 100.257 61.2839C100.484 61.2385 100.659 61.2044 100.78 61.1817L101.541 64.7839C101.299 64.8597 100.958 64.9468 100.519 65.0453C100.079 65.1513 99.545 65.2157 98.9163 65.2385C97.7496 65.2839 96.7269 65.1286 95.8481 64.7726C94.9769 64.4165 94.2988 63.8635 93.814 63.1135C93.3291 62.3635 93.0905 61.4165 93.0981 60.2726V43.3635ZM108.394 65.3294C107.28 65.3294 106.288 65.1362 105.416 64.7498C104.545 64.3559 103.856 63.7763 103.348 63.0112C102.848 62.2385 102.598 61.2763 102.598 60.1248C102.598 59.1551 102.776 58.3407 103.132 57.6817C103.488 57.0226 103.973 56.4923 104.587 56.0907C105.201 55.6892 105.898 55.3862 106.678 55.1817C107.466 54.9771 108.291 54.8332 109.155 54.7498C110.17 54.6438 110.988 54.5453 111.61 54.4544C112.231 54.3559 112.682 54.212 112.962 54.0226C113.242 53.8332 113.382 53.5529 113.382 53.1817V53.1135C113.382 52.3938 113.155 51.837 112.701 51.443C112.254 51.0491 111.617 50.8521 110.791 50.8521C109.92 50.8521 109.227 51.0453 108.712 51.4317C108.197 51.8104 107.856 52.2877 107.689 52.8635L103.212 52.4998C103.439 51.4392 103.886 50.5226 104.553 49.7498C105.22 48.9695 106.079 48.371 107.132 47.9544C108.193 47.5301 109.42 47.318 110.814 47.318C111.784 47.318 112.712 47.4317 113.598 47.6589C114.492 47.8862 115.284 48.2385 115.973 48.7157C116.67 49.193 117.22 49.8067 117.621 50.5567C118.023 51.2991 118.223 52.1892 118.223 53.2271V64.9998H113.632V62.5794H113.496C113.216 63.1248 112.841 63.6059 112.371 64.0226C111.901 64.4317 111.337 64.7536 110.678 64.9885C110.019 65.2157 109.257 65.3294 108.394 65.3294ZM109.78 61.9885C110.492 61.9885 111.121 61.8483 111.666 61.568C112.212 61.2801 112.64 60.8938 112.951 60.4089C113.261 59.9241 113.416 59.3748 113.416 58.7612V56.9089C113.265 57.0074 113.057 57.0983 112.791 57.1817C112.534 57.2574 112.242 57.3294 111.916 57.3976C111.591 57.4582 111.265 57.515 110.939 57.568C110.613 57.6135 110.318 57.6551 110.053 57.693C109.485 57.7763 108.988 57.9089 108.564 58.0907C108.14 58.2726 107.81 58.5188 107.576 58.8294C107.341 59.1324 107.223 59.5112 107.223 59.9657C107.223 60.6248 107.462 61.1286 107.939 61.4771C108.424 61.818 109.038 61.9885 109.78 61.9885ZM128.905 65.3407C127.117 65.3407 125.58 64.962 124.292 64.2044C123.011 63.4392 122.027 62.3786 121.337 61.0226C120.655 59.6665 120.314 58.1059 120.314 56.3407C120.314 54.5529 120.659 52.9847 121.349 51.6362C122.045 50.2801 123.034 49.2233 124.314 48.4657C125.595 47.7006 127.117 47.318 128.883 47.318C130.405 47.318 131.739 47.5945 132.883 48.1476C134.027 48.7006 134.932 49.4771 135.599 50.4771C136.265 51.4771 136.633 52.6513 136.701 53.9998H132.133C132.004 53.1286 131.663 52.4279 131.11 51.8976C130.564 51.3597 129.849 51.0907 128.962 51.0907C128.212 51.0907 127.557 51.2953 126.996 51.7044C126.443 52.1059 126.011 52.693 125.701 53.4657C125.39 54.2385 125.235 55.1741 125.235 56.2726C125.235 57.3862 125.386 58.3332 125.689 59.1135C126 59.8938 126.436 60.4885 126.996 60.8976C127.557 61.3067 128.212 61.5112 128.962 61.5112C129.515 61.5112 130.011 61.3976 130.451 61.1703C130.898 60.943 131.265 60.6135 131.553 60.1817C131.849 59.7423 132.042 59.2157 132.133 58.6021H136.701C136.625 59.9354 136.261 61.1097 135.61 62.1248C134.966 63.1324 134.076 63.9203 132.939 64.4885C131.803 65.0567 130.458 65.3407 128.905 65.3407ZM143.227 59.9771L143.238 54.1703H143.943L149.533 47.5453H155.09L147.579 56.318H146.431L143.227 59.9771ZM138.84 64.9998V41.7271H143.681V64.9998H138.84ZM149.749 64.9998L144.613 57.3976L147.84 53.9771L155.42 64.9998H149.749Z" fill="url(#paint2_linear_1524_259)"/>
<defs>
<linearGradient id="paint0_linear_1524_259" x1="14.7677" y1="31.0585" x2="14.7677" y2="63.3744" gradientUnits="userSpaceOnUse">
<stop offset="0.4375" stop-color="#01C347"/>
<stop offset="1" stop-color="#44BFFF"/>
</linearGradient>
<linearGradient id="paint1_linear_1524_259" x1="20.8929" y1="10.7943" x2="20.8929" y2="65.8912" gradientUnits="userSpaceOnUse">
<stop offset="0.4375" stop-color="#01C347"/>
<stop offset="1" stop-color="#44BFFF"/>
</linearGradient>
<linearGradient id="paint2_linear_1524_259" x1="81.9034" y1="36.9647" x2="131.588" y2="59.0759" gradientUnits="userSpaceOnUse">
<stop stop-color="#44BFFF"/>
<stop offset="0.802885" stop-color="#01C347"/>
</linearGradient>
</defs>
</svg>
